<svg width="129" height="40" viewBox="0 0 129 40" fill="none" xmlns="http://www.w3.org/2000/svg">
<g clip-path="url(#clip0_4120_3228)">
<path d="M37.2264 15.4705L33.109 31.7C33.013 32.0734 32.6824 32.3402 32.309 32.3402L16.4477 32.3615C16.1064 32.3615 15.9144 32.767 16.117 33.0444L18.005 35.6586C18.165 35.872 18.4104 36.0001 18.6664 36.0001L26.8264 35.9894C31.989 35.9787 36.4904 32.3828 37.8024 27.2078L39.9677 18.6503C40.0317 18.3942 39.9784 18.1274 39.829 17.9247L37.941 15.3212C37.7384 15.0437 37.3117 15.1291 37.2264 15.4705Z" fill="url(#paint0_linear_4120_3228)"/>
<path d="M24.2772 28.7976C27.8719 28.7976 31.0079 26.2794 31.9252 22.6836L33.9199 14.8196L34.7732 11.4692C34.8372 11.2131 34.7839 10.9463 34.6345 10.7436L32.2345 7.43581L29.9945 4.34145C29.8345 4.12804 29.5892 4 29.3332 4L21.1732 4.01067C16.0105 4.01067 11.4985 7.61721 10.1972 12.7816L8.03188 21.3391C7.96788 21.5952 8.02121 21.862 8.17055 22.0647L10.5705 25.3725L12.8105 28.4668C12.9705 28.6802 13.2159 28.8083 13.4719 28.8083H16.7252L24.2772 28.7976ZM27.1039 25.1591L18.3039 25.1697C17.9625 25.1697 17.7172 24.8389 17.8025 24.4975L20.0852 15.4705C20.1812 15.097 20.5119 14.8303 20.8852 14.8303L29.6852 14.8196C30.0265 14.8196 30.2719 15.1504 30.1865 15.4918L27.9039 24.5188C27.8079 24.8923 27.4772 25.1591 27.1039 25.1591ZM10.7839 24.5082L14.8905 8.28943C14.9865 7.91597 15.3172 7.64922 15.6905 7.64922L31.5199 7.62788C31.8612 7.62788 32.1065 7.95865 32.0212 8.3001L31.4132 10.7009C31.3385 10.9783 31.0932 11.1811 30.8159 11.1811H26.3892C21.2372 11.1917 16.7252 14.7876 15.4132 19.9627L14.2079 24.7002C14.1332 24.9777 13.8879 25.1804 13.6105 25.1804H11.2852C10.9439 25.1804 10.6985 24.8496 10.7839 24.5082Z" fill="url(#paint1_linear_4120_3228)"/>
</g>
<path d="M55.136 28V12.16H58.184V28H55.136ZM50.48 14.728V12.16H62.84V14.728H50.48ZM63.2408 28V21.688V15.448H65.8088L65.7368 19.888H66.1688C66.2968 18.832 66.5128 17.96 66.8168 17.272C67.1208 16.568 67.5368 16.04 68.0648 15.688C68.6088 15.336 69.2648 15.16 70.0328 15.16C70.2088 15.16 70.3928 15.176 70.5848 15.208C70.7768 15.224 70.9928 15.272 71.2328 15.352L71.0888 18.568C70.8328 18.456 70.5688 18.376 70.2968 18.328C70.0248 18.28 69.7768 18.256 69.5528 18.256C68.9288 18.256 68.3928 18.424 67.9448 18.76C67.4968 19.08 67.1368 19.544 66.8648 20.152C66.5928 20.744 66.4008 21.456 66.2888 22.288V28H63.2408ZM74.9428 28.312C74.2548 28.312 73.6388 28.184 73.0948 27.928C72.5508 27.656 72.1188 27.264 71.7988 26.752C71.4788 26.224 71.3188 25.568 71.3188 24.784C71.3188 24.112 71.4468 23.544 71.7028 23.08C71.9588 22.616 72.3348 22.24 72.8308 21.952C73.3268 21.648 73.9348 21.4 74.6548 21.208C75.3908 21 76.2308 20.832 77.1748 20.704C77.7508 20.608 78.2148 20.52 78.5668 20.44C78.9188 20.36 79.1748 20.24 79.3348 20.08C79.5108 19.92 79.5988 19.672 79.5988 19.336C79.5988 18.824 79.4148 18.392 79.0468 18.04C78.6948 17.688 78.1348 17.512 77.3668 17.512C76.9188 17.512 76.4868 17.592 76.0708 17.752C75.6548 17.912 75.2948 18.168 74.9908 18.52C74.6868 18.856 74.4788 19.304 74.3668 19.864L71.6788 19.096C71.8228 18.44 72.0628 17.864 72.3988 17.368C72.7348 16.872 73.1508 16.456 73.6468 16.12C74.1428 15.784 74.7108 15.536 75.3508 15.376C76.0068 15.216 76.7108 15.136 77.4628 15.136C78.6148 15.136 79.5668 15.328 80.3188 15.712C81.0708 16.096 81.6308 16.688 81.9988 17.488C82.3828 18.272 82.5748 19.28 82.5748 20.512V22.864C82.5748 23.408 82.5828 23.976 82.5988 24.568C82.6308 25.144 82.6628 25.728 82.6948 26.32C82.7268 26.896 82.7668 27.456 82.8148 28H80.1028C80.0548 27.536 80.0068 27.04 79.9588 26.512C79.9268 25.984 79.9028 25.44 79.8868 24.88H79.5268C79.3188 25.504 79.0068 26.08 78.5908 26.608C78.1748 27.136 77.6628 27.552 77.0548 27.856C76.4468 28.16 75.7428 28.312 74.9428 28.312ZM76.1188 26.056C76.4548 26.056 76.7908 26 77.1268 25.888C77.4628 25.776 77.7908 25.608 78.1108 25.384C78.4308 25.144 78.7188 24.848 78.9748 24.496C79.2468 24.144 79.4708 23.728 79.6468 23.248L79.6228 21.304L80.1988 21.376C79.9268 21.6 79.5988 21.776 79.2148 21.904C78.8308 22.032 78.4148 22.136 77.9668 22.216C77.5188 22.28 77.0788 22.352 76.6468 22.432C76.2148 22.512 75.8148 22.624 75.4468 22.768C75.0948 22.896 74.8068 23.088 74.5828 23.344C74.3748 23.6 74.2708 23.944 74.2708 24.376C74.2708 24.904 74.4388 25.32 74.7748 25.624C75.1268 25.912 75.5748 26.056 76.1188 26.056ZM83.4543 28L87.6303 21.736L83.4543 15.448H86.9583L89.4543 20.248H89.8143L92.2863 15.448H95.7663L91.6143 21.736L95.8383 28H92.3343L89.8143 23.2H89.4543L86.9823 28H83.4543ZM101.833 28.312C100.601 28.312 99.5134 28.064 98.5694 27.568C97.6254 27.056 96.8894 26.312 96.3614 25.336C95.8334 24.36 95.5694 23.144 95.5694 21.688C95.5694 20.216 95.8414 19 96.3854 18.04C96.9294 17.064 97.6734 16.336 98.6174 15.856C99.5614 15.376 100.625 15.136 101.809 15.136C103.025 15.136 104.105 15.384 105.049 15.88C105.993 16.376 106.737 17.12 107.281 18.112C107.825 19.088 108.097 20.304 108.097 21.76C108.097 23.232 107.817 24.456 107.257 25.432C106.713 26.408 105.969 27.136 105.025 27.616C104.081 28.08 103.017 28.312 101.833 28.312ZM101.929 26.008C102.585 26.008 103.145 25.856 103.609 25.552C104.073 25.232 104.425 24.76 104.665 24.136C104.921 23.512 105.049 22.768 105.049 21.904C105.049 20.992 104.921 20.216 104.665 19.576C104.409 18.92 104.033 18.416 103.537 18.064C103.041 17.712 102.441 17.536 101.737 17.536C101.081 17.536 100.521 17.696 100.057 18.016C99.5934 18.32 99.2334 18.784 98.9774 19.408C98.7374 20.016 98.6174 20.76 98.6174 21.64C98.6174 23.048 98.9054 24.128 99.4814 24.88C100.073 25.632 100.889 26.008 101.929 26.008ZM114.645 28.312C113.797 28.312 113.029 28.224 112.341 28.048C111.669 27.888 111.085 27.648 110.589 27.328C110.109 27.008 109.725 26.616 109.437 26.152C109.165 25.688 109.005 25.168 108.957 24.592L111.357 23.8C111.405 24.232 111.565 24.624 111.837 24.976C112.125 25.312 112.517 25.576 113.013 25.768C113.525 25.944 114.133 26.032 114.837 26.032C115.621 26.032 116.229 25.912 116.661 25.672C117.109 25.416 117.333 25.056 117.333 24.592C117.333 24.256 117.213 23.992 116.973 23.8C116.733 23.592 116.389 23.424 115.941 23.296C115.493 23.152 114.949 23.016 114.309 22.888C113.701 22.76 113.093 22.616 112.485 22.456C111.893 22.28 111.341 22.056 110.829 21.784C110.333 21.496 109.933 21.128 109.629 20.68C109.325 20.216 109.173 19.64 109.173 18.952C109.173 18.184 109.373 17.52 109.773 16.96C110.189 16.384 110.789 15.936 111.573 15.616C112.357 15.296 113.293 15.136 114.381 15.136C115.421 15.136 116.317 15.288 117.069 15.592C117.837 15.88 118.461 16.296 118.941 16.84C119.421 17.384 119.709 18.048 119.805 18.832L117.309 19.552C117.261 19.104 117.109 18.72 116.853 18.4C116.613 18.08 116.277 17.84 115.845 17.68C115.429 17.504 114.933 17.416 114.357 17.416C113.621 17.416 113.045 17.544 112.629 17.8C112.213 18.056 112.005 18.408 112.005 18.856C112.005 19.192 112.133 19.464 112.389 19.672C112.661 19.88 113.029 20.048 113.493 20.176C113.957 20.304 114.501 20.44 115.125 20.584C115.749 20.696 116.357 20.84 116.949 21.016C117.557 21.176 118.101 21.392 118.581 21.664C119.061 21.936 119.445 22.296 119.733 22.744C120.021 23.176 120.165 23.744 120.165 24.448C120.165 25.264 119.941 25.968 119.493 26.56C119.061 27.136 118.429 27.576 117.597 27.88C116.781 28.168 115.797 28.312 114.645 28.312Z" fill="url(#paint2_linear_4120_3228)"/>
<defs>
<linearGradient id="paint0_linear_4120_3228" x1="28.0143" y1="16.054" x2="28.0143" y2="36" gradientUnits="userSpaceOnUse">
<stop stop-color="white" stop-opacity="0.5"/>
<stop offset="1" stop-color="white"/>
</linearGradient>
<linearGradient id="paint1_linear_4120_3228" x1="21.4025" y1="5.06932" x2="21.4025" y2="28.8083" gradientUnits="userSpaceOnUse">
<stop stop-color="white" stop-opacity="0.5"/>
<stop offset="1" stop-color="white"/>
</linearGradient>
<linearGradient id="paint2_linear_4120_3228" x1="85.5" y1="5.37931" x2="85.5" y2="36" gradientUnits="userSpaceOnUse">
<stop stop-color="white" stop-opacity="0.5"/>
<stop offset="1" stop-color="white"/>
</linearGradient>
<clipPath id="clip0_4120_3228">
<rect width="32" height="32" fill="white" transform="translate(8 4)"/>
</clipPath>
</defs>
</svg>
