<svg width="40" height="40" viewBox="0 0 40 40" fill="none" xmlns="http://www.w3.org/2000/svg">
<path d="M20 40C31.0834 40 40 31.0834 40 20C40 8.9166 31.0834 0 20 0C8.9166 0 0 8.9166 0 20C0 31.0834 8.9166 40 20 40Z" fill="#2775CA"/>
<path d="M25.5 23.1665C25.5 20.2499 23.75 19.2499 20.25 18.8333C17.75 18.4999 17.25 17.8333 17.25 16.6665C17.25 15.4997 18.0834 14.7499 19.75 14.7499C21.25 14.7499 22.0834 15.2499 22.5 16.4999C22.5834 16.7499 22.8334 16.9165 23.0834 16.9165H24.4166C24.75 16.9165 25 16.6665 25 16.3333V16.2499C24.6666 14.4165 23.1666 12.9999 21.25 12.8333V10.8333C21.25 10.4999 21 10.2499 20.5834 10.1665H19.3334C19 10.1665 18.75 10.4165 18.6666 10.8333V12.7499C16.1666 13.0833 14.5834 14.7499 14.5834 16.8333C14.5834 19.5833 16.25 20.6665 19.75 21.0833C22.0834 21.4999 22.8334 21.9999 22.8334 23.3333C22.8334 24.6667 21.6666 25.5833 20.0834 25.5833C17.9166 25.5833 17.1666 24.6665 16.9166 23.4165C16.8334 23.0833 16.5834 22.9165 16.3334 22.9165H14.9166C14.5834 22.9165 14.3334 23.1665 14.3334 23.4999V23.5833C14.6666 25.6665 16 27.1665 18.75 27.5833V29.5833C18.75 29.9165 19 30.1665 19.4166 30.2499H20.6666C21 30.2499 21.25 29.9999 21.3334 29.5833V27.5833C23.8334 27.1665 25.5 25.4165 25.5 23.1665V23.1665Z" fill="white"/>
<path fill-rule="evenodd" clip-rule="evenodd" d="M8.33344 15.9167C5.91664 22.3335 9.25004 29.5835 15.75 31.9167C16 32.0835 16.25 32.4167 16.25 32.6667V33.8335C16.25 34.0001 16.25 34.0835 16.1666 34.1667C16.0834 34.5001 15.75 34.6667 15.4166 34.5001C10.75 33.0001 7.16664 29.4167 5.66664 24.7501C3.16664 16.8335 7.50004 8.4167 15.4166 5.9167C15.5 5.8335 15.6666 5.8335 15.75 5.8335C16.0834 5.9167 16.25 6.1667 16.25 6.5001V7.6667C16.25 8.0835 16.0834 8.3335 15.75 8.5001C12.3334 9.7501 9.58344 12.4167 8.33344 15.9167ZM23.8334 6.24999C23.9166 5.91659 24.25 5.74999 24.5834 5.91659C29.1666 7.41659 32.8334 11 34.3334 15.75C36.8334 23.6666 32.5 32.0834 24.5834 34.5834C24.5 34.6666 24.3334 34.6666 24.25 34.6666C23.9166 34.5834 23.75 34.3334 23.75 34V32.8334C23.75 32.4166 23.9166 32.1666 24.25 32C27.6666 30.75 30.4166 28.0834 31.6666 24.5834C34.0834 18.1666 30.75 10.9166 24.25 8.58339C24 8.41659 23.75 8.08339 23.75 7.74999V6.58339C23.75 6.41659 23.75 6.33339 23.8334 6.24999Z" fill="white"/>
</svg>
