<svg width="245" height="192" viewBox="0 0 245 192" fill="none" xmlns="http://www.w3.org/2000/svg">
<g filter="url(#filter0_bdi_4263_10)">
<path d="M56.0624 9.17739L2.49999 107.48C-1.81174 115.393 1.13469 125.304 9.06926 129.577L98.898 177.946C105.859 181.694 114.508 179.892 119.393 173.675L119.885 173.049C124.438 167.846 132.08 170.339 135.332 172.236L163.375 187.336C171.249 191.576 181.07 188.661 185.355 180.812L242.044 76.988C246.398 69.0142 243.374 59.0198 235.329 54.7979L145.997 7.91433C139.765 4.64372 132.098 6.13908 127.552 11.5118C126.779 12.4248 126.146 13.4451 125.504 14.4539C120.781 21.8694 112.876 20.9163 109.316 19.3902L78.019 2.62416C70.1427 -1.59526 60.3375 1.33124 56.0624 9.17739Z" fill="#F5F5F5" fill-opacity="0.12"/>
</g>
<defs>
<filter id="filter0_bdi_4263_10" x="-23.4851" y="-23.306" width="291.522" height="236.589" filterUnits="userSpaceOnUse" color-interpolation-filters="sRGB">
<feFlood flood-opacity="0" result="BackgroundImageFix"/>
<feGaussianBlur in="BackgroundImageFix" stdDeviation="12"/>
<feComposite in2="SourceAlpha" operator="in" result="effect1_backgroundBlur_4263_10"/>
<feColorMatrix in="SourceAlpha" type="matrix" values="0 0 0 0 0 0 0 0 0 0 0 0 0 0 0 0 0 0 127 0" result="hardAlpha"/>
<feOffset dy="2"/>
<feComposite in2="hardAlpha" operator="out"/>
<feColorMatrix type="matrix" values="0 0 0 0 1 0 0 0 0 1 0 0 0 0 1 0 0 0 0.48 0"/>
<feBlend mode="normal" in2="effect1_backgroundBlur_4263_10" result="effect2_dropShadow_4263_10"/>
<feBlend mode="normal" in="SourceGraphic" in2="effect2_dropShadow_4263_10" result="shape"/>
<feColorMatrix in="SourceAlpha" type="matrix" values="0 0 0 0 0 0 0 0 0 0 0 0 0 0 0 0 0 0 127 0" result="hardAlpha"/>
<feOffset dy="-4"/>
<feGaussianBlur stdDeviation="8"/>
<feComposite in2="hardAlpha" operator="arithmetic" k2="-1" k3="1"/>
<feColorMatrix type="matrix" values="0 0 0 0 1 0 0 0 0 1 0 0 0 0 1 0 0 0 0.25 0"/>
<feBlend mode="plus-lighter" in2="shape" result="effect3_innerShadow_4263_10"/>
</filter>
</defs>
</svg>
