<svg width="380" height="213" viewBox="0 0 380 213" fill="none" xmlns="http://www.w3.org/2000/svg">
<path d="M327.625 191.5V0" stroke="url(#paint0_linear_4120_3571)" stroke-dasharray="6 6"/>
<path d="M380 71L182 71" stroke="url(#paint1_linear_4120_3571)" stroke-dasharray="6 6"/>
<path d="M-4 216.85C7.01251 216.557 29.9041 214.302 33.3703 207.624C37.7031 199.278 47.4519 180.827 77.7814 201.035C108.111 221.243 111.384 152.053 149.272 167.208C188.809 183.023 167.687 147 212.639 148.318C271.132 150.033 247.836 124.595 268.424 124.595C306.878 124.595 285.214 71 328 71V223H-4V216.85Z" fill="url(#paint2_linear_4120_3571)"/>
<path d="M328 71C285.2 71 306.871 124.595 268.405 124.595C247.811 124.595 271.114 150.033 212.603 148.318C167.637 147 188.766 183.023 149.216 167.208C111.317 152.053 108.042 221.243 77.703 201.035C47.364 180.827 37.6121 199.278 33.278 207.624C29.8107 214.302 6.91194 216.557 -4.10402 216.85C-15.12 217.143 -4.10402 223 -4.10402 223" stroke="url(#paint3_linear_4120_3571)" stroke-width="2"/>
<g style="mix-blend-mode:plus-lighter" filter="url(#filter0_f_4120_3571)">
<path d="M328 71C285.2 71 306.871 124.595 268.405 124.595C247.811 124.595 271.114 150.033 212.603 148.318C167.637 147 188.766 183.023 149.216 167.208C111.317 152.053 108.042 221.243 77.703 201.035C47.364 180.827 37.6121 199.278 33.278 207.624C29.8107 214.302 6.91194 216.557 -4.10402 216.85C-15.12 217.143 -4.10402 223 -4.10402 223" stroke="url(#paint4_linear_4120_3571)" stroke-width="4"/>
</g>
<rect x="319.333" y="62.3333" width="17.3333" height="17.3333" rx="8.66667" fill="#1BCA6A"/>
<rect x="319.333" y="62.3333" width="17.3333" height="17.3333" rx="8.66667" stroke="black" stroke-width="1.33333"/>
<rect x="324" y="67" width="8" height="8" rx="4" fill="white"/>
<defs>
<filter id="filter0_f_4120_3571" x="-16.999" y="63" width="350.999" height="167.765" filterUnits="userSpaceOnUse" color-interpolation-filters="sRGB">
<feFlood flood-opacity="0" result="BackgroundImageFix"/>
<feBlend mode="normal" in="SourceGraphic" in2="BackgroundImageFix" result="shape"/>
<feGaussianBlur stdDeviation="3" result="effect1_foregroundBlur_4120_3571"/>
</filter>
<linearGradient id="paint0_linear_4120_3571" x1="328.125" y1="0" x2="328.125" y2="191.5" gradientUnits="userSpaceOnUse">
<stop stop-color="#222223"/>
<stop offset="0.52" stop-color="#858489"/>
<stop offset="1" stop-color="#222223"/>
</linearGradient>
<linearGradient id="paint1_linear_4120_3571" x1="384.5" y1="71" x2="185.5" y2="71" gradientUnits="userSpaceOnUse">
<stop offset="0.02" stop-color="#0F131B"/>
<stop offset="0.157077" stop-color="#858489"/>
<stop offset="1" stop-color="#222223"/>
</linearGradient>
<linearGradient id="paint2_linear_4120_3571" x1="225.638" y1="142.168" x2="225.638" y2="223" gradientUnits="userSpaceOnUse">
<stop stop-color="#28FF21" stop-opacity="0.1"/>
<stop offset="1" stop-color="#28FF21" stop-opacity="0"/>
</linearGradient>
<linearGradient id="paint3_linear_4120_3571" x1="328" y1="71" x2="-9" y2="223" gradientUnits="userSpaceOnUse">
<stop stop-color="#1BCA6A"/>
<stop offset="1" stop-color="#0B0B0B"/>
</linearGradient>
<linearGradient id="paint4_linear_4120_3571" x1="323.666" y1="71" x2="220.705" y2="182.171" gradientUnits="userSpaceOnUse">
<stop stop-color="white"/>
<stop offset="1" stop-color="#14D3FF" stop-opacity="0"/>
</linearGradient>
</defs>
</svg>
