<svg width="141" height="32" viewBox="0 0 141 32" fill="none" xmlns="http://www.w3.org/2000/svg">
<g clip-path="url(#clip0_4263_136)">
<path d="M85.5315 5.53955H81.8421V9.5085H79.6333V12.9908H81.8421V22.1022C81.8173 22.9011 81.9339 23.698 82.1873 24.4559C82.3968 25.0209 82.7415 25.5258 83.1916 25.9262C83.6247 26.3213 84.1431 26.6106 84.7067 26.7717C85.9857 27.0823 87.3207 27.0823 88.5997 26.7717C89.1077 26.6378 89.5978 26.4428 90.0596 26.1919V23.3895C89.3687 23.6808 88.6284 23.8378 87.8784 23.852C87.2513 23.9234 86.6242 23.7105 86.17 23.2721C85.7455 22.8718 85.5212 22.3472 85.5212 21.4637V12.9908H90.0596V9.5085H85.5315V5.53955ZM73.9249 10.7441C72.3812 9.61411 70.5172 9.00462 68.6041 9.00462C63.6626 9.00462 59.5963 13.0709 59.5963 18.0124C59.5963 22.9539 63.6626 27.0202 68.6041 27.0202C70.5172 27.0202 72.3812 26.4107 73.9249 25.2808V26.5267H77.6143V9.4947H73.9249V10.7441ZM68.6031 23.317C65.6837 23.317 63.2812 20.9146 63.2812 17.9952C63.2812 15.0757 65.6837 12.6733 68.6031 12.6733C71.5225 12.6733 73.9249 15.0757 73.9249 17.9952C73.9249 17.9962 73.9249 17.9986 73.9249 17.9986C73.9249 20.9163 71.5242 23.317 68.6065 23.317C68.6055 23.317 68.6041 23.317 68.6031 23.317ZM48.3856 14.6888V18.7959H53.9387C53.2301 21.7922 50.494 23.9003 47.4158 23.8209C43.5379 23.8133 40.3514 20.6202 40.3514 16.7424C40.3514 12.8593 43.5466 9.66381 47.4299 9.66381C49.4724 9.66381 51.4182 10.548 52.7618 12.0866L55.9404 9.49125C53.8168 6.98839 50.6959 5.543 47.4134 5.543C41.2791 5.543 36.2313 10.5908 36.2313 16.7251C36.2313 22.859 41.2784 27.9065 47.4123 27.9072C50.3217 27.96 53.1304 26.8238 55.1846 24.7631C56.9054 22.9819 57.9746 20.6702 58.2182 18.2057C58.3183 17.0302 58.3356 15.8495 58.27 14.6716L48.3856 14.6888ZM131.382 9.00117C126.438 9.00117 122.37 13.0688 122.37 18.0124C122.37 22.956 126.438 27.0237 131.382 27.0237C136.325 27.0237 140.393 22.956 140.393 18.0124C140.393 18.0079 140.393 18.0031 140.393 17.9986C140.393 13.055 136.325 8.98736 131.382 8.98736V9.00117ZM131.382 23.3308C128.462 23.3308 126.06 20.9284 126.06 18.009C126.06 15.0895 128.462 12.6871 131.382 12.6871C134.301 12.6871 136.703 15.0895 136.703 18.009C136.703 18.01 136.703 18.0114 136.703 18.0124C136.696 20.926 134.295 23.3191 131.382 23.317V23.3308ZM116.334 26.5405H120.303V11.2548H116.334V26.5405ZM110.27 26.5405H114.239V22.5577H110.27V26.5405ZM100.213 9.00117C100.21 9.00117 100.207 9.00117 100.205 9.00117C95.261 9.00117 91.1933 13.0688 91.1933 18.0124C91.1933 22.956 95.261 27.0237 100.205 27.0237C103.504 27.0237 106.549 25.2118 108.124 22.3127L104.793 20.6941C103.838 22.3161 102.09 23.3149 100.208 23.3149C97.8018 23.3149 95.681 21.6835 95.0639 19.3584H109.131C109.2 18.9073 109.235 18.4514 109.235 17.9952C109.235 13.0512 105.167 8.98219 100.224 8.98046L100.213 9.00117ZM95.233 16.1349C96.0106 14.0656 98.001 12.6875 100.211 12.6875C102.422 12.6875 104.412 14.0656 105.19 16.1349H95.233ZM116.334 9.52231H120.303V5.55335H116.334V9.52231Z" fill="white"/>
<path d="M16.6158 24.8011C11.7878 24.8011 7.81506 20.8284 7.81506 16.0004C7.81506 11.1725 11.7878 7.1997 16.6158 7.1997V0.000366211C7.83853 0.000366211 0.615723 7.22317 0.615723 16.0004C0.615723 24.7777 7.83853 32.0005 16.6158 32.0005C25.393 32.0005 32.6158 24.7777 32.6158 16.0004H25.4165C25.4165 20.8284 21.4438 24.8011 16.6158 24.8011Z" fill="#2354E6"/>
<path d="M25.4164 7.19971H16.6157V16.0004H25.4164V7.19971Z" fill="#17E6A1"/>
</g>
<defs>
<clipPath id="clip0_4263_136">
<rect width="139.84" height="32" fill="white" transform="translate(0.583984)"/>
</clipPath>
</defs>
</svg>
