<svg width="28" height="28" viewBox="0 0 28 28" fill="none" xmlns="http://www.w3.org/2000/svg">
<path fill-rule="evenodd" clip-rule="evenodd" d="M0.703766 13C1.21513 6.10329 6.97276 0.666687 14.0002 0.666687C12.8923 0.666687 11.906 1.1523 11.0946 1.89486C10.2872 2.63369 9.60493 3.66505 9.0531 4.88422C8.49801 6.11058 8.06683 7.54493 7.775 9.10151C7.54106 10.3493 7.39869 11.6647 7.35124 13H0.703766ZM0.703766 15H7.35124C7.39869 16.3353 7.54106 17.6508 7.775 18.8985C8.06683 20.4551 8.49801 21.8895 9.0531 23.1158C9.60493 24.335 10.2872 25.3664 11.0946 26.1052C11.906 26.8477 12.8924 27.3334 14.0002 27.3334C6.97276 27.3334 1.21513 21.8968 0.703766 15Z" fill="url(#paint0_radial_4277_232)"/>
<path d="M14.0002 2.52715C13.6335 2.52715 13.1598 2.68317 12.609 3.18724C12.0541 3.69504 11.4986 4.49088 11.0078 5.57518C10.5203 6.65229 10.1244 7.95256 9.85195 9.40561C9.63741 10.5499 9.50431 11.7629 9.45761 13H18.5427C18.496 11.7629 18.3629 10.5499 18.1484 9.40561C17.876 7.95256 17.4801 6.6523 16.9925 5.57518C16.5018 4.49088 15.9463 3.69504 15.3914 3.18724C14.8405 2.68317 14.3668 2.52715 14.0002 2.52715Z" fill="url(#paint1_radial_4277_232)"/>
<path d="M9.85195 18.5944C10.1244 20.0475 10.5203 21.3477 11.0078 22.4249C11.4986 23.5092 12.0541 24.305 12.609 24.8128C13.1598 25.3169 13.6335 25.4729 14.0002 25.4729C14.3668 25.4729 14.8405 25.3169 15.3914 24.8128C15.9463 24.305 16.5018 23.5092 16.9925 22.4249C17.4801 21.3477 17.876 20.0475 18.1484 18.5944C18.3629 17.4501 18.496 16.2371 18.5427 15H9.45761C9.50431 16.2371 9.63741 17.4501 9.85195 18.5944Z" fill="url(#paint2_radial_4277_232)"/>
<path d="M14.0002 0.666687C15.108 0.666687 16.0943 1.1523 16.9058 1.89486C17.7131 2.63369 18.3954 3.66506 18.9472 4.88423C19.5023 6.11058 19.9335 7.54493 20.2253 9.10151C20.4593 10.3493 20.6016 11.6647 20.6491 13H27.2966C26.7852 6.10329 21.0276 0.666687 14.0002 0.666687Z" fill="url(#paint3_radial_4277_232)"/>
<path d="M20.2253 18.8985C19.9335 20.4551 19.5023 21.8895 18.9472 23.1158C18.3954 24.335 17.7131 25.3664 16.9058 26.1052C16.0943 26.8477 15.108 27.3334 14.0002 27.3334C21.0276 27.3334 26.7852 21.8968 27.2966 15H20.6491C20.6016 16.3353 20.4593 17.6508 20.2253 18.8985Z" fill="url(#paint4_radial_4277_232)"/>
<defs>
<radialGradient id="paint0_radial_4277_232" cx="0" cy="0" r="1" gradientUnits="userSpaceOnUse" gradientTransform="translate(4.8166 6.66423) rotate(50.2067) scale(32.1603 45.7881)">
<stop stop-color="white"/>
<stop offset="1" stop-color="#CBD1D6"/>
</radialGradient>
<radialGradient id="paint1_radial_4277_232" cx="0" cy="0" r="1" gradientUnits="userSpaceOnUse" gradientTransform="translate(4.8166 6.66423) rotate(50.2067) scale(32.1603 45.7881)">
<stop stop-color="white"/>
<stop offset="1" stop-color="#CBD1D6"/>
</radialGradient>
<radialGradient id="paint2_radial_4277_232" cx="0" cy="0" r="1" gradientUnits="userSpaceOnUse" gradientTransform="translate(4.8166 6.66423) rotate(50.2067) scale(32.1603 45.7881)">
<stop stop-color="white"/>
<stop offset="1" stop-color="#CBD1D6"/>
</radialGradient>
<radialGradient id="paint3_radial_4277_232" cx="0" cy="0" r="1" gradientUnits="userSpaceOnUse" gradientTransform="translate(4.8166 6.66423) rotate(50.2067) scale(32.1603 45.7881)">
<stop stop-color="white"/>
<stop offset="1" stop-color="#CBD1D6"/>
</radialGradient>
<radialGradient id="paint4_radial_4277_232" cx="0" cy="0" r="1" gradientUnits="userSpaceOnUse" gradientTransform="translate(4.8166 6.66423) rotate(50.2067) scale(32.1603 45.7881)">
<stop stop-color="white"/>
<stop offset="1" stop-color="#CBD1D6"/>
</radialGradient>
</defs>
</svg>
