<svg width="22" height="22" viewBox="0 0 22 22" fill="none" xmlns="http://www.w3.org/2000/svg">
<path d="M13 1.75C14.9068 1.75 16.2615 1.75159 17.2892 1.88976C18.2952 2.02503 18.8749 2.27869 19.2981 2.7019C19.7213 3.12511 19.975 3.70476 20.1102 4.71085C20.2484 5.73851 20.25 7.09318 20.25 9C20.25 9.41421 20.5858 9.75 21 9.75C21.4142 9.75 21.75 9.41421 21.75 9V8.94359C21.75 7.10583 21.75 5.65019 21.5969 4.51098C21.4392 3.33856 21.1071 2.38961 20.3588 1.64124C19.6104 0.892881 18.6614 0.560764 17.489 0.403136C16.3498 0.249973 14.8942 0.249985 13.0564 0.25H13C12.5858 0.25 12.25 0.585788 12.25 1C12.25 1.41421 12.5858 1.75 13 1.75Z" fill="url(#paint0_radial_4277_406)"/>
<path d="M8.94358 0.25H9C9.41421 0.25 9.75 0.585788 9.75 1C9.75 1.41421 9.41421 1.75 9 1.75C7.09318 1.75 5.73851 1.75159 4.71085 1.88976C3.70476 2.02503 3.12511 2.27869 2.7019 2.7019C2.27869 3.12511 2.02503 3.70476 1.88976 4.71085C1.75159 5.73851 1.75 7.09318 1.75 9C1.75 9.41421 1.41421 9.75 1 9.75C0.585788 9.75 0.25 9.41421 0.25 9V8.94358C0.249985 7.10583 0.249973 5.65019 0.403136 4.51098C0.560764 3.33856 0.892881 2.38961 1.64124 1.64124C2.38961 0.892881 3.33856 0.560764 4.51098 0.403136C5.65019 0.249973 7.10583 0.249985 8.94358 0.25Z" fill="url(#paint1_radial_4277_406)"/>
<path d="M4.52721 4.52721C4 5.05442 4 5.90295 4 7.6C4 8.73137 4 9.29706 4.35147 9.64853C4.70294 10 5.26863 10 6.4 10H7.6C8.73137 10 9.29706 10 9.64853 9.64853C10 9.29706 10 8.73137 10 7.6V6.4C10 5.26863 10 4.70294 9.64853 4.35147C9.29706 4 8.73137 4 7.6 4C5.90295 4 5.05442 4 4.52721 4.52721Z" fill="url(#paint2_radial_4277_406)"/>
<path d="M4.52721 17.4728C4 16.9456 4 16.0971 4 14.4C4 13.2686 4 12.7029 4.35147 12.3515C4.70295 12 5.26863 12 6.4 12H7.6C8.73137 12 9.29706 12 9.64853 12.3515C10 12.7029 10 13.2686 10 14.4V15.6C10 16.7314 10 17.2971 9.64853 17.6485C9.29706 18 8.73138 18 7.60002 18C5.90298 18 5.05441 18 4.52721 17.4728Z" fill="url(#paint3_radial_4277_406)"/>
<path d="M12 6.4C12 5.26863 12 4.70294 12.3515 4.35147C12.7029 4 13.2686 4 14.4 4C16.0971 4 16.9456 4 17.4728 4.52721C18 5.05442 18 5.90295 18 7.6C18 8.73137 18 9.29706 17.6485 9.64853C17.2971 10 16.7314 10 15.6 10H14.4C13.2686 10 12.7029 10 12.3515 9.64853C12 9.29706 12 8.73137 12 7.6V6.4Z" fill="url(#paint4_radial_4277_406)"/>
<path d="M12.3515 17.6485C12 17.2971 12 16.7314 12 15.6V14.4C12 13.2686 12 12.7029 12.3515 12.3515C12.7029 12 13.2686 12 14.4 12H15.6C16.7314 12 17.2971 12 17.6485 12.3515C18 12.7029 18 13.2686 18 14.4C18 16.097 18 16.9456 17.4728 17.4728C16.9456 18 16.0971 18 14.4 18C13.2687 18 12.7029 18 12.3515 17.6485Z" fill="url(#paint5_radial_4277_406)"/>
<path d="M21 12.25C21.4142 12.25 21.75 12.5858 21.75 13V13.0564C21.75 14.8942 21.75 16.3498 21.5969 17.489C21.4392 18.6614 21.1071 19.6104 20.3588 20.3588C19.6104 21.1071 18.6614 21.4392 17.489 21.5969C16.3498 21.75 14.8942 21.75 13.0564 21.75H13C12.5858 21.75 12.25 21.4142 12.25 21C12.25 20.5858 12.5858 20.25 13 20.25C14.9068 20.25 16.2615 20.2484 17.2892 20.1102C18.2952 19.975 18.8749 19.7213 19.2981 19.2981C19.7213 18.8749 19.975 18.2952 20.1102 17.2892C20.2484 16.2615 20.25 14.9068 20.25 13C20.25 12.5858 20.5858 12.25 21 12.25Z" fill="url(#paint6_radial_4277_406)"/>
<path d="M1.75 13C1.75 12.5858 1.41421 12.25 1 12.25C0.585788 12.25 0.25 12.5858 0.25 13V13.0564C0.249985 14.8942 0.249973 16.3498 0.403136 17.489C0.560764 18.6614 0.892881 19.6104 1.64124 20.3588C2.38961 21.1071 3.33856 21.4392 4.51098 21.5969C5.65019 21.75 7.10583 21.75 8.94359 21.75H9C9.41421 21.75 9.75 21.4142 9.75 21C9.75 20.5858 9.41421 20.25 9 20.25C7.09318 20.25 5.73851 20.2484 4.71085 20.1102C3.70476 19.975 3.12511 19.7213 2.7019 19.2981C2.27869 18.8749 2.02503 18.2952 1.88976 17.2892C1.75159 16.2615 1.75 14.9068 1.75 13Z" fill="url(#paint7_radial_4277_406)"/>
<defs>
<radialGradient id="paint0_radial_4277_406" cx="0" cy="0" r="1" gradientUnits="userSpaceOnUse" gradientTransform="translate(3.57518 5.08552) rotate(50.1285) scale(25.9588 36.9771)">
<stop stop-color="white"/>
<stop offset="1" stop-color="#CBD1D6"/>
</radialGradient>
<radialGradient id="paint1_radial_4277_406" cx="0" cy="0" r="1" gradientUnits="userSpaceOnUse" gradientTransform="translate(3.57518 5.08552) rotate(50.1285) scale(25.9588 36.9771)">
<stop stop-color="white"/>
<stop offset="1" stop-color="#CBD1D6"/>
</radialGradient>
<radialGradient id="paint2_radial_4277_406" cx="0" cy="0" r="1" gradientUnits="userSpaceOnUse" gradientTransform="translate(3.57518 5.08552) rotate(50.1285) scale(25.9588 36.9771)">
<stop stop-color="white"/>
<stop offset="1" stop-color="#CBD1D6"/>
</radialGradient>
<radialGradient id="paint3_radial_4277_406" cx="0" cy="0" r="1" gradientUnits="userSpaceOnUse" gradientTransform="translate(3.57518 5.08552) rotate(50.1285) scale(25.9588 36.9771)">
<stop stop-color="white"/>
<stop offset="1" stop-color="#CBD1D6"/>
</radialGradient>
<radialGradient id="paint4_radial_4277_406" cx="0" cy="0" r="1" gradientUnits="userSpaceOnUse" gradientTransform="translate(3.57518 5.08552) rotate(50.1285) scale(25.9588 36.9771)">
<stop stop-color="white"/>
<stop offset="1" stop-color="#CBD1D6"/>
</radialGradient>
<radialGradient id="paint5_radial_4277_406" cx="0" cy="0" r="1" gradientUnits="userSpaceOnUse" gradientTransform="translate(3.57518 5.08552) rotate(50.1285) scale(25.9588 36.9771)">
<stop stop-color="white"/>
<stop offset="1" stop-color="#CBD1D6"/>
</radialGradient>
<radialGradient id="paint6_radial_4277_406" cx="0" cy="0" r="1" gradientUnits="userSpaceOnUse" gradientTransform="translate(3.57518 5.08552) rotate(50.1285) scale(25.9588 36.9771)">
<stop stop-color="white"/>
<stop offset="1" stop-color="#CBD1D6"/>
</radialGradient>
<radialGradient id="paint7_radial_4277_406" cx="0" cy="0" r="1" gradientUnits="userSpaceOnUse" gradientTransform="translate(3.57518 5.08552) rotate(50.1285) scale(25.9588 36.9771)">
<stop stop-color="white"/>
<stop offset="1" stop-color="#CBD1D6"/>
</radialGradient>
</defs>
</svg>
