<svg width="24" height="28" viewBox="0 0 24 28" fill="none" xmlns="http://www.w3.org/2000/svg">
<path d="M11 0.764526C10.1916 0.915324 9.24212 1.24035 7.78363 1.73959L7.01988 2.00103C3.0111 3.37325 1.00671 4.05936 0.503354 4.77651C0.0109934 5.47801 0.000240099 7.53296 5.24384e-06 11.6125L11 7.94588V0.764526Z" fill="url(#paint0_radial_4277_141)"/>
<path d="M11 10.0541L0 13.7207V13.9884C0 21.5059 5.65195 25.1539 9.19808 26.703C9.87904 27.0005 10.319 27.1926 11 27.2795V10.0541Z" fill="url(#paint1_radial_4277_141)"/>
<path d="M13 27.2795V10.0541L24 13.7207V13.9884C24 21.5059 18.348 25.154 14.8019 26.703C14.121 27.0005 13.681 27.1926 13 27.2795Z" fill="url(#paint2_radial_4277_141)"/>
<path d="M13 7.94588V0.764526C13.8084 0.915324 14.7579 1.24035 16.2164 1.73959L16.9801 2.00103C20.9889 3.37325 22.9933 4.05936 23.4966 4.77651C23.989 5.47801 23.9998 7.53296 24 11.6125L13 7.94588Z" fill="url(#paint3_radial_4277_141)"/>
<defs>
<radialGradient id="paint0_radial_4277_141" cx="0" cy="0" r="1" gradientUnits="userSpaceOnUse" gradientTransform="translate(3.71183 6.72796) rotate(52.9087) scale(30.8022 42.9005)">
<stop stop-color="white"/>
<stop offset="1" stop-color="#CBD1D6"/>
</radialGradient>
<radialGradient id="paint1_radial_4277_141" cx="0" cy="0" r="1" gradientUnits="userSpaceOnUse" gradientTransform="translate(3.71183 6.72796) rotate(52.9087) scale(30.8022 42.9005)">
<stop stop-color="white"/>
<stop offset="1" stop-color="#CBD1D6"/>
</radialGradient>
<radialGradient id="paint2_radial_4277_141" cx="0" cy="0" r="1" gradientUnits="userSpaceOnUse" gradientTransform="translate(3.71183 6.72796) rotate(52.9087) scale(30.8022 42.9005)">
<stop stop-color="white"/>
<stop offset="1" stop-color="#CBD1D6"/>
</radialGradient>
<radialGradient id="paint3_radial_4277_141" cx="0" cy="0" r="1" gradientUnits="userSpaceOnUse" gradientTransform="translate(3.71183 6.72796) rotate(52.9087) scale(30.8022 42.9005)">
<stop stop-color="white"/>
<stop offset="1" stop-color="#CBD1D6"/>
</radialGradient>
</defs>
</svg>
