<svg width="131" height="40" viewBox="0 0 131 40" fill="none" xmlns="http://www.w3.org/2000/svg">
<g clip-path="url(#clip0_4263_12)">
<path d="M4.03784 31.4587C5.72784 33.8087 7.89534 35.7762 10.3991 37.23C12.9016 38.6837 15.6841 39.5925 18.5628 39.8962C17.0816 37.6662 14.9291 35.6162 12.2416 34.055C9.55284 32.4937 6.70659 31.6412 4.03784 31.4587Z" fill="url(#paint0_linear_4263_12)"/>
<path d="M15.851 27.8375C10.6723 24.83 5.06727 24.0625 1.05727 25.4175C1.44352 26.6975 1.95477 27.9362 2.58102 29.1162C6.06602 29.0362 9.87102 29.9825 13.411 32.0387C16.951 34.095 19.6585 36.9325 21.3148 40C22.6523 39.9587 23.9823 39.7887 25.286 39.4912C24.476 35.3375 21.0285 30.8475 15.851 27.8375Z" fill="url(#paint1_linear_4263_12)"/>
<path d="M40.5299 15.6263C39.8724 12.9476 38.68 10.4301 37.0275 8.22256C35.3737 6.01506 33.2937 4.16381 30.9087 2.77756C28.5237 1.39256 25.885 0.502556 23.1487 0.158806C20.4112 -0.183694 17.6337 0.0288061 14.9812 0.782556C19.4137 1.32506 24.3325 2.98881 29.1562 5.79131C33.98 8.59381 37.865 12.0426 40.5299 15.6263Z" fill="url(#paint2_linear_4263_12)"/>
<path d="M34.084 25.4475C31.8153 21.6813 27.9303 18.0738 23.1428 15.2925C18.3565 12.5113 13.299 10.9238 8.90651 10.8188C5.04276 10.7275 2.14276 11.85 0.952764 13.9C0.945264 13.9113 0.936514 13.9238 0.929014 13.935C0.821514 14.32 0.729014 14.705 0.645264 15.0913C2.30776 14.435 4.23276 14.07 6.37526 14.0288C11.1378 13.94 16.4665 15.4625 21.3853 18.32C26.304 21.1775 30.2703 25.055 32.5503 29.235C33.5728 31.1175 34.2115 32.9725 34.464 34.7438C34.7578 34.48 35.0465 34.2088 35.3265 33.9263C35.334 33.9138 35.339 33.9 35.3465 33.8863C36.5365 31.835 36.0765 28.76 34.084 25.4475Z" fill="url(#paint3_linear_4263_12)"/>
<path d="M19.4989 21.5612C12.1689 17.3025 4.06761 16.635 0.172607 19.6062C0.180107 20.5375 0.251357 21.4662 0.385107 22.3862C1.53136 22.0387 2.71261 21.82 3.90636 21.7337C8.26011 21.4062 13.0589 22.62 17.4139 25.1512C21.7689 27.6825 25.2014 31.2525 27.0739 35.1925C27.5914 36.2725 27.9864 37.4062 28.2501 38.575C29.1176 38.235 29.9589 37.8362 30.7714 37.3837C31.4239 32.5262 26.8314 25.82 19.4989 21.5612Z" fill="url(#paint4_linear_4263_12)"/>
<path d="M37.8533 19.1425C35.5596 15.38 31.6396 11.7625 26.8196 8.96254C21.9983 6.16379 16.9221 4.55004 12.5158 4.42129C9.15581 4.32379 6.55456 5.13879 5.20581 6.6763C10.8071 5.72754 18.1958 7.32254 25.3571 11.4825C32.5183 15.6438 37.5671 21.2725 39.5146 26.6088C40.1821 24.6763 39.6021 22.0125 37.8533 19.1425Z" fill="url(#paint5_linear_4263_12)"/>
<path d="M58.5036 12.3863H61.9236V23.7963C61.9236 24.8513 61.6873 25.7675 61.2123 26.545C60.7436 27.3225 60.0911 27.9213 59.2548 28.3425C58.4186 28.7638 57.4473 28.9738 56.3386 28.9738C55.3536 28.9738 54.4586 28.8013 53.6548 28.455C52.8548 28.1025 52.2211 27.57 51.7523 26.8563C51.2836 26.1375 51.0523 25.235 51.0573 24.1475H54.5011C54.5123 24.5788 54.5998 24.9488 54.7648 25.2588C54.9348 25.5625 55.1673 25.7963 55.4598 25.9613C55.7586 26.1213 56.1098 26.2013 56.5148 26.2013C56.9411 26.2013 57.2998 26.1113 57.5936 25.93C57.8911 25.7438 58.1186 25.4713 58.2723 25.115C58.4273 24.7575 58.5036 24.3188 58.5036 23.7963V12.3863ZM72.5911 23.525V16.4775H75.9948V28.75H72.7261V26.5213H72.5986C72.3223 27.24 71.8611 27.8175 71.2161 28.255C70.5773 28.6913 69.7973 28.91 68.8748 28.91C68.0548 28.91 67.3336 28.7238 66.7098 28.35C66.0873 27.9775 65.5998 27.4475 65.2473 26.76C64.9011 26.0738 64.7261 25.25 64.7211 24.2913V16.4775H68.1248V23.6838C68.1298 24.4088 68.3236 24.9813 68.7073 25.4025C69.0911 25.8225 69.6048 26.0338 70.2498 26.0338C70.6598 26.0338 71.0436 25.94 71.3998 25.7538C71.7573 25.5625 72.0448 25.28 72.2636 24.9063C72.4873 24.5338 72.5961 24.0738 72.5911 23.525ZM78.7173 33.3525V16.4775H82.0723V18.5388H82.2248C82.3736 18.2088 82.5898 17.8725 82.8723 17.5325C83.1598 17.1863 83.5323 16.8988 83.9911 16.6688C84.4536 16.435 85.0298 16.3175 85.7161 16.3175C86.6111 16.3175 87.4373 16.5525 88.1936 17.0213C88.9498 17.4838 89.5536 18.185 90.0073 19.1225C90.4598 20.0538 90.6861 21.2238 90.6861 22.63C90.6861 23.9988 90.4648 25.155 90.0223 26.0975C89.5861 27.035 88.9898 27.7463 88.2336 28.23C87.4823 28.71 86.6411 28.95 85.7086 28.95C85.0473 28.95 84.4861 28.84 84.0223 28.6225C83.5648 28.4038 83.1886 28.13 82.8961 27.7988C82.6023 27.4638 82.3786 27.125 82.2248 26.785H82.1211V33.3525H78.7173ZM82.0486 22.6138C82.0486 23.3438 82.1498 23.98 82.3523 24.5238C82.5548 25.0663 82.8473 25.49 83.2311 25.7938C83.6148 26.0925 84.0811 26.2413 84.6298 26.2413C85.1836 26.2413 85.6523 26.0888 86.0361 25.7863C86.4198 25.4763 86.7098 25.0513 86.9073 24.5075C87.1098 23.9588 87.2098 23.3275 87.2098 22.6138C87.2098 21.905 87.1123 21.2825 86.9148 20.7438C86.7173 20.2063 86.4273 19.785 86.0436 19.4813C85.6598 19.1775 85.1886 19.0263 84.6298 19.0263C84.0761 19.0263 83.6073 19.1725 83.2236 19.465C82.8448 19.7588 82.5548 20.1738 82.3523 20.7125C82.1498 21.25 82.0486 21.8838 82.0486 22.6138ZM92.9548 28.75V16.4775H96.3586V28.75H92.9548ZM94.6648 14.895C94.1586 14.895 93.7248 14.7275 93.3623 14.3925C93.0061 14.0513 92.8273 13.6438 92.8273 13.17C92.8273 12.7013 93.0061 12.2988 93.3623 11.9625C93.7248 11.6225 94.1586 11.4513 94.6648 11.4513C95.1711 11.4513 95.6023 11.6225 95.9598 11.9625C96.3223 12.2988 96.5023 12.7013 96.5023 13.17C96.5023 13.6438 96.3223 14.0513 95.9598 14.3925C95.6023 14.7275 95.1711 14.895 94.6648 14.895ZM105.614 16.4775V19.0338H98.2223V16.4775H105.614ZM99.9011 13.5375H103.305V24.9788C103.305 25.2925 103.352 25.5375 103.449 25.7138C103.544 25.8838 103.677 26.0038 103.847 26.0738C104.024 26.1425 104.226 26.1775 104.455 26.1775C104.615 26.1775 104.775 26.1638 104.935 26.1375C105.095 26.105 105.216 26.0813 105.302 26.065L105.837 28.5988C105.667 28.6513 105.427 28.7125 105.119 28.7825C104.81 28.8563 104.434 28.9025 103.991 28.9175C103.171 28.95 102.452 28.84 101.835 28.59C101.222 28.34 100.745 27.9513 100.404 27.4238C100.064 26.8963 99.8948 26.23 99.9011 25.4263V13.5375ZM113.292 28.99C112.03 28.99 110.944 28.7338 110.032 28.2225C109.126 27.7063 108.429 26.9763 107.939 26.0338C107.449 25.085 107.204 23.9638 107.204 22.67C107.204 21.4075 107.449 20.2988 107.939 19.3463C108.429 18.3925 109.119 17.6488 110.009 17.1163C110.904 16.5838 111.952 16.3175 113.156 16.3175C113.966 16.3175 114.72 16.4475 115.417 16.7088C116.12 16.965 116.734 17.3513 117.255 17.8675C117.782 18.3838 118.192 19.0338 118.486 19.8175C118.779 20.595 118.925 21.5063 118.925 22.55V23.485H108.562V21.375H115.721C115.721 20.885 115.615 20.4513 115.401 20.0725C115.189 19.695 114.892 19.3988 114.515 19.1863C114.141 18.9675 113.707 18.8588 113.212 18.8588C112.696 18.8588 112.237 18.9775 111.837 19.2175C111.444 19.4525 111.135 19.7688 110.911 20.1688C110.687 20.5625 110.572 21.0025 110.567 21.4875V23.4925C110.567 24.1 110.68 24.625 110.904 25.0663C111.132 25.5088 111.455 25.85 111.87 26.09C112.285 26.3288 112.779 26.4488 113.349 26.4488C113.726 26.4488 114.072 26.395 114.386 26.2888C114.701 26.1825 114.97 26.0225 115.194 25.81C115.417 25.5963 115.587 25.3363 115.705 25.0263L118.854 25.235C118.694 25.9913 118.366 26.6513 117.87 27.2163C117.38 27.775 116.746 28.2125 115.969 28.5263C115.196 28.835 114.304 28.99 113.292 28.99ZM121.146 28.75V16.4775H124.446V18.6188H124.574C124.797 17.8575 125.174 17.2813 125.701 16.8925C126.227 16.4988 126.835 16.3013 127.522 16.3013C127.692 16.3013 127.876 16.3125 128.074 16.3338C128.271 16.355 128.444 16.3838 128.594 16.4213V19.4413C128.434 19.3938 128.212 19.3513 127.93 19.3138C127.647 19.2763 127.389 19.2575 127.155 19.2575C126.654 19.2575 126.206 19.3675 125.812 19.585C125.424 19.7988 125.115 20.0963 124.886 20.48C124.662 20.8638 124.55 21.3063 124.55 21.8063V28.75H121.146Z" fill="white"/>
</g>
<defs>
<linearGradient id="paint0_linear_4263_12" x1="27.0491" y1="8.12499" x2="8.50747" y2="40" gradientUnits="userSpaceOnUse">
<stop stop-color="#A4D756"/>
<stop offset="1" stop-color="#00B6E7"/>
</linearGradient>
<linearGradient id="paint1_linear_4263_12" x1="27.0473" y1="8.12496" x2="8.50564" y2="40" gradientUnits="userSpaceOnUse">
<stop stop-color="#A4D756"/>
<stop offset="1" stop-color="#00B6E7"/>
</linearGradient>
<linearGradient id="paint2_linear_4263_12" x1="27.0487" y1="8.12506" x2="8.50707" y2="40.0001" gradientUnits="userSpaceOnUse">
<stop stop-color="#A4D756"/>
<stop offset="1" stop-color="#00B6E7"/>
</linearGradient>
<linearGradient id="paint3_linear_4263_12" x1="27.0503" y1="8.12501" x2="8.50863" y2="40" gradientUnits="userSpaceOnUse">
<stop stop-color="#A4D756"/>
<stop offset="1" stop-color="#00B6E7"/>
</linearGradient>
<linearGradient id="paint4_linear_4263_12" x1="27.0476" y1="8.12497" x2="8.50598" y2="40" gradientUnits="userSpaceOnUse">
<stop stop-color="#A4D756"/>
<stop offset="1" stop-color="#00B6E7"/>
</linearGradient>
<linearGradient id="paint5_linear_4263_12" x1="27.0496" y1="8.12504" x2="8.50793" y2="40" gradientUnits="userSpaceOnUse">
<stop stop-color="#A4D756"/>
<stop offset="1" stop-color="#00B6E7"/>
</linearGradient>
<clipPath id="clip0_4263_12">
<rect width="130" height="40" fill="white" transform="translate(0.172607)"/>
</clipPath>
</defs>
</svg>
