<svg width="19" height="19" viewBox="0 0 19 19" fill="none" xmlns="http://www.w3.org/2000/svg">
<path d="M1.66794 7.65193C1.72989 7.67717 1.79544 7.68972 1.861 7.68972C1.92883 7.68972 1.99665 7.67623 2.06034 7.64926L3.59391 7.00211C3.85467 6.89196 3.97697 6.59128 3.86682 6.33039C3.7568 6.0695 3.45599 5.94733 3.19509 6.05735L2.82005 6.2157C3.98391 3.5662 6.61738 1.82408 9.54753 1.82408C12.8977 1.82408 15.8233 4.08945 16.6621 7.33296C16.7219 7.56408 16.9299 7.71749 17.1581 7.71749C17.2006 7.71749 17.2438 7.71215 17.2868 7.70107C17.5609 7.63017 17.7257 7.35045 17.6548 7.07634C16.6991 3.38008 13.3652 0.798676 9.54753 0.798676C6.18973 0.798676 3.17413 2.80649 1.85926 5.85427L1.68623 5.44411C1.57608 5.18335 1.2754 5.06105 1.01451 5.17107C0.753616 5.28122 0.631448 5.58203 0.741466 5.84279L1.38862 7.37636C1.44149 7.50159 1.5419 7.6008 1.66794 7.65193Z" fill="#F3EDFF"/>
<path d="M18.1608 13.1505L17.5137 11.6171C17.4608 11.4917 17.3603 11.3927 17.2344 11.3414C17.1083 11.2903 16.9672 11.2912 16.842 11.3441L15.3084 11.9913C15.0476 12.1014 14.9253 12.4022 15.0355 12.6631C15.1455 12.924 15.4463 13.0461 15.7072 12.936L16.1365 12.7548C15.0017 15.4753 12.3314 17.2733 9.3549 17.2733C6.00458 17.2733 3.07897 15.0079 2.24022 11.7644C2.16932 11.4901 1.88961 11.3256 1.6155 11.3963C1.34139 11.4672 1.17663 11.7469 1.24753 12.021C2.20324 15.7173 5.53714 18.2987 9.3549 18.2987C12.7315 18.2987 15.7622 16.2681 17.0651 13.1914L17.2161 13.5492C17.2987 13.7451 17.4887 13.8627 17.6887 13.8627C17.7551 13.8627 17.8228 13.8498 17.8878 13.8223C18.1487 13.7121 18.2709 13.4114 18.1608 13.1505Z" fill="#F3EDFF"/>
<path d="M8.42308 15.1921C8.47983 15.2127 8.53857 15.2224 8.59665 15.2224C8.74659 15.2224 8.89252 15.1566 8.99186 15.0364L13.2868 9.84116C13.4134 9.68802 13.4401 9.47573 13.3556 9.29602C13.2709 9.11644 13.0903 9.00175 12.8917 9.00175H11.6484C11.3033 9.00175 11.0234 8.72192 11.0234 8.37675V4.35338C11.0234 4.13708 10.8878 3.94415 10.6843 3.87085C10.481 3.79768 10.2535 3.86003 10.1155 4.02666L5.82058 9.22191C5.69401 9.37492 5.6673 9.58735 5.75182 9.76693C5.83647 9.94664 6.01725 10.0613 6.21579 10.0613H7.45908C7.80426 10.0613 8.08408 10.3412 8.08408 10.6863V14.7097C8.08395 14.926 8.2196 15.1189 8.42308 15.1921Z" fill="url(#paint0_linear_4277_158)" fill-opacity="0.24" stroke="#F3EDFF" stroke-width="0.9375"/>
<defs>
<linearGradient id="paint0_linear_4277_158" x1="9.5537" y1="3.84058" x2="9.5537" y2="15.2224" gradientUnits="userSpaceOnUse">
<stop stop-color="white" stop-opacity="0"/>
<stop offset="1" stop-color="white"/>
</linearGradient>
</defs>
</svg>
