<svg width="48" height="84" viewBox="0 0 48 84" fill="none" xmlns="http://www.w3.org/2000/svg">
<g opacity="0.32">
<rect width="48" height="1" rx="0.5" transform="matrix(1 0 0 -1 0 84)" fill="white"/>
<rect opacity="0.5" width="12" height="1" rx="0.5" transform="matrix(1 0 0 -1 0 75)" fill="url(#paint0_radial_4120_3335)"/>
<rect width="12" height="2" rx="1" transform="matrix(1 0 0 -1 0 66)" fill="url(#paint1_radial_4120_3335)"/>
<rect opacity="0.5" width="12" height="1" rx="0.5" transform="matrix(1 0 0 -1 0 56)" fill="url(#paint2_radial_4120_3335)"/>
<rect opacity="0.5" width="32" height="1" rx="0.5" transform="matrix(1 0 0 -1 0 47)" fill="url(#paint3_radial_4120_3335)"/>
<rect width="48" height="1" rx="0.5" transform="matrix(1 0 0 -1 0 38)" fill="white"/>
<rect opacity="0.5" width="12" height="1" rx="0.5" transform="matrix(1 0 0 -1 0 29)" fill="url(#paint4_radial_4120_3335)"/>
<rect width="12" height="2" rx="1" transform="matrix(1 0 0 -1 0 20)" fill="url(#paint5_radial_4120_3335)"/>
<rect opacity="0.5" width="12" height="1" rx="0.5" transform="matrix(1 0 0 -1 0 10)" fill="url(#paint6_radial_4120_3335)"/>
<rect opacity="0.5" width="32" height="1" rx="0.5" transform="matrix(1 0 0 -1 0 1)" fill="url(#paint7_radial_4120_3335)"/>
</g>
<defs>
<radialGradient id="paint0_radial_4120_3335" cx="0" cy="0" r="1" gradientUnits="userSpaceOnUse" gradientTransform="translate(1.85592 0.224908) rotate(5.69734) scale(9.33431 2.66956)">
<stop stop-color="white"/>
<stop offset="1" stop-color="#CBD1D6"/>
</radialGradient>
<radialGradient id="paint1_radial_4120_3335" cx="0" cy="0" r="1" gradientUnits="userSpaceOnUse" gradientTransform="translate(1.85592 0.449815) rotate(11.2842) scale(9.47129 5.2619)">
<stop stop-color="white"/>
<stop offset="1" stop-color="#CBD1D6"/>
</radialGradient>
<radialGradient id="paint2_radial_4120_3335" cx="0" cy="0" r="1" gradientUnits="userSpaceOnUse" gradientTransform="translate(1.85592 0.224908) rotate(5.69734) scale(9.33431 2.66956)">
<stop stop-color="white"/>
<stop offset="1" stop-color="#CBD1D6"/>
</radialGradient>
<radialGradient id="paint3_radial_4120_3335" cx="0" cy="0" r="1" gradientUnits="userSpaceOnUse" gradientTransform="translate(4.94911 0.224908) rotate(2.14257) scale(24.7859 2.68094)">
<stop stop-color="white"/>
<stop offset="1" stop-color="#CBD1D6"/>
</radialGradient>
<radialGradient id="paint4_radial_4120_3335" cx="0" cy="0" r="1" gradientUnits="userSpaceOnUse" gradientTransform="translate(1.85592 0.224908) rotate(5.69734) scale(9.33431 2.66956)">
<stop stop-color="white"/>
<stop offset="1" stop-color="#CBD1D6"/>
</radialGradient>
<radialGradient id="paint5_radial_4120_3335" cx="0" cy="0" r="1" gradientUnits="userSpaceOnUse" gradientTransform="translate(1.85592 0.449815) rotate(11.2842) scale(9.47129 5.2619)">
<stop stop-color="white"/>
<stop offset="1" stop-color="#CBD1D6"/>
</radialGradient>
<radialGradient id="paint6_radial_4120_3335" cx="0" cy="0" r="1" gradientUnits="userSpaceOnUse" gradientTransform="translate(1.85592 0.224908) rotate(5.69734) scale(9.33431 2.66956)">
<stop stop-color="white"/>
<stop offset="1" stop-color="#CBD1D6"/>
</radialGradient>
<radialGradient id="paint7_radial_4120_3335" cx="0" cy="0" r="1" gradientUnits="userSpaceOnUse" gradientTransform="translate(4.94911 0.224908) rotate(2.14257) scale(24.7859 2.68094)">
<stop stop-color="white"/>
<stop offset="1" stop-color="#CBD1D6"/>
</radialGradient>
</defs>
</svg>
