<svg width="32" height="32" viewBox="0 0 32 32" fill="none" xmlns="http://www.w3.org/2000/svg">
<g clip-path="url(#clip0_4373_377)">
<path d="M29.2266 11.4705L25.1092 27.7C25.0132 28.0734 24.6826 28.3402 24.3092 28.3402L8.44789 28.3615C8.10656 28.3615 7.91456 28.767 8.11723 29.0444L10.0052 31.6586C10.1652 31.872 10.4106 32.0001 10.6666 32.0001L18.8266 31.9894C23.9892 31.9787 28.4906 28.3828 29.8026 23.2078L31.9679 14.6503C32.0319 14.3942 31.9786 14.1274 31.8292 13.9247L29.9412 11.3212C29.7386 11.0437 29.3119 11.1291 29.2266 11.4705Z" fill="url(#paint0_linear_4373_377)"/>
<path d="M16.2773 24.7976C19.872 24.7976 23.008 22.2794 23.9253 18.6836L25.92 10.8196L26.7733 7.46916C26.8373 7.21307 26.784 6.94632 26.6347 6.74358L24.2347 3.43581L21.9947 0.341447C21.8347 0.128043 21.5893 0 21.3333 0L13.1733 0.0106702C8.01067 0.0106702 3.49867 3.61721 2.19734 8.78159L0.0320026 17.3391C-0.0319974 17.5952 0.0213359 17.862 0.170669 18.0647L2.57067 21.3725L4.81067 24.4668C4.97067 24.6802 5.216 24.8083 5.472 24.8083H8.72534L16.2773 24.7976ZM19.104 21.1591L10.304 21.1697C9.96267 21.1697 9.71733 20.8389 9.80267 20.4975L12.0853 11.4705C12.1813 11.097 12.512 10.8303 12.8853 10.8303L21.6853 10.8196C22.0267 10.8196 22.272 11.1504 22.1867 11.4918L19.904 20.5188C19.808 20.8923 19.4773 21.1591 19.104 21.1591ZM2.784 20.5082L6.89067 4.28943C6.98667 3.91597 7.31733 3.64922 7.69067 3.64922L23.52 3.62788C23.8613 3.62788 24.1067 3.95865 24.0213 4.3001L23.4133 6.7009C23.3387 6.97833 23.0933 7.18106 22.816 7.18106H18.3893C13.2373 7.19173 8.72534 10.7876 7.41333 15.9627L6.208 20.7002C6.13334 20.9777 5.888 21.1804 5.61067 21.1804H3.28534C2.944 21.1804 2.69867 20.8496 2.784 20.5082Z" fill="url(#paint1_linear_4373_377)"/>
</g>
<defs>
<linearGradient id="paint0_linear_4373_377" x1="20.0145" y1="12.054" x2="20.0145" y2="32" gradientUnits="userSpaceOnUse">
<stop stop-color="white" stop-opacity="0.5"/>
<stop offset="1" stop-color="white"/>
</linearGradient>
<linearGradient id="paint1_linear_4373_377" x1="13.4027" y1="1.06932" x2="13.4027" y2="24.8083" gradientUnits="userSpaceOnUse">
<stop stop-color="white" stop-opacity="0.5"/>
<stop offset="1" stop-color="white"/>
</linearGradient>
<clipPath id="clip0_4373_377">
<rect width="32" height="32" fill="white"/>
</clipPath>
</defs>
</svg>
