<svg width="116" height="32" viewBox="0 0 116 32" fill="none" xmlns="http://www.w3.org/2000/svg">
<g clip-path="url(#clip0_4263_74)">
<path d="M34.3728 0H1.62989C1.428 0 1.23428 0.0750509 1.09153 0.208663C0.948681 0.342275 0.868454 0.523574 0.868454 0.712538V31.3502C0.868454 31.5392 0.948681 31.7207 1.09153 31.8543C1.23428 31.9877 1.428 32.0628 1.62989 32.0628H34.3728C34.575 32.0628 34.7685 31.9877 34.9114 31.8543C35.0542 31.7207 35.1345 31.5392 35.1345 31.3502V0.712538C35.1345 0.523574 35.0542 0.342275 34.9114 0.208663C34.7685 0.0750509 34.575 0 34.3728 0ZM23.7124 20.6627C23.7124 20.8518 23.6322 21.033 23.4893 21.1666C23.3466 21.3002 23.1529 21.3752 22.951 21.3752H13.0519C12.85 21.3752 12.6563 21.3002 12.5135 21.1666C12.3707 21.033 12.2904 20.8518 12.2904 20.6627V11.4002C12.2904 11.2112 12.3707 11.0299 12.5135 10.8963C12.6563 10.7627 12.85 10.6876 13.0519 10.6876H22.951C23.1529 10.6876 23.3466 10.7627 23.4893 10.8963C23.6322 11.0299 23.7124 11.2112 23.7124 11.4002V20.6627Z" fill="white"/>
<path d="M102.919 10.689H93.02C92.5996 10.689 92.2585 11.0079 92.2585 11.4014V20.664C92.2585 21.0576 92.5996 21.3766 93.02 21.3766H102.919C103.34 21.3766 103.681 21.0576 103.681 20.664V11.4014C103.681 11.0079 103.34 10.689 102.919 10.689Z" fill="white"/>
<path d="M91.4994 0.000488281H81.6005C81.1799 0.000488281 80.839 0.319499 80.839 0.712937V9.97557C80.839 10.3691 81.1799 10.6881 81.6005 10.6881H91.4994C91.9201 10.6881 92.2611 10.3691 92.2611 9.97557V0.712937C92.2611 0.319499 91.9201 0.000488281 91.4994 0.000488281Z" fill="white"/>
<path d="M114.347 0.000488281H104.448C104.027 0.000488281 103.687 0.319499 103.687 0.712937V9.97557C103.687 10.3691 104.027 10.6881 104.448 10.6881H114.347C114.768 10.6881 115.109 10.3691 115.109 9.97557V0.712937C115.109 0.319499 114.768 0.000488281 114.347 0.000488281Z" fill="white"/>
<path d="M91.4994 21.3763H81.6005C81.1799 21.3763 80.839 21.6954 80.839 22.0888V31.3515C80.839 31.745 81.1799 32.0641 81.6005 32.0641H91.4994C91.9201 32.0641 92.2611 31.745 92.2611 31.3515V22.0888C92.2611 21.6954 91.9201 21.3763 91.4994 21.3763Z" fill="white"/>
<path d="M114.347 21.3763H104.448C104.027 21.3763 103.687 21.6954 103.687 22.0888V31.3515C103.687 31.745 104.027 32.0641 104.448 32.0641H114.347C114.768 32.0641 115.109 31.745 115.109 31.3515V22.0888C115.109 21.6954 114.768 21.3763 114.347 21.3763Z" fill="white"/>
<path d="M74.3527 0.000488281H64.4538C64.0331 0.000488281 63.692 0.319499 63.692 0.712937V9.97557C63.692 10.3691 64.0331 10.6881 64.4538 10.6881H74.3527C74.7733 10.6881 75.1141 10.3691 75.1141 9.97557V0.712937C75.1141 0.319499 74.7733 0.000488281 74.3527 0.000488281Z" fill="white"/>
<path d="M74.3527 21.3763H64.4538C64.0331 21.3763 63.692 21.6954 63.692 22.0888V31.3515C63.692 31.745 64.0331 32.0641 64.4538 32.0641H74.3527C74.7733 32.0641 75.1141 31.745 75.1141 31.3515V22.0888C75.1141 21.6954 74.7733 21.3763 74.3527 21.3763Z" fill="white"/>
<path d="M63.6892 11.3921C63.6892 11.2032 63.6088 11.0219 63.4661 10.8884C63.3234 10.7547 63.1297 10.6796 62.9278 10.6796H52.2671V0.712538C52.2671 0.523574 52.1868 0.342275 52.044 0.208663C51.9013 0.0750509 51.7076 0 51.5057 0H41.6068C41.4046 0 41.2111 0.0750509 41.0681 0.208663C40.9254 0.342275 40.845 0.523574 40.845 0.712538V31.3343C40.845 31.5233 40.9254 31.7045 41.0681 31.8382C41.2111 31.9718 41.4046 32.0468 41.6068 32.0468H51.5057C51.7076 32.0468 51.9013 31.9718 52.044 31.8382C52.1868 31.7045 52.2671 31.5233 52.2671 31.3343V21.3672H62.9278C63.1297 21.3672 63.3234 21.2922 63.4661 21.1586C63.6088 21.0249 63.6892 20.8436 63.6892 20.6547V11.3921Z" fill="white"/>
</g>
<defs>
<clipPath id="clip0_4263_74">
<rect width="114.176" height="32" fill="white" transform="translate(0.86853)"/>
</clipPath>
</defs>
</svg>
