<svg width="27" height="29" viewBox="0 0 27 29" fill="none" xmlns="http://www.w3.org/2000/svg">
<path d="M22.4758 1.15216C22.76 0.678579 23.3743 0.525014 23.8478 0.809162L23.3333 1.66665C23.8478 0.809162 23.8474 0.808891 23.8478 0.809162L23.8497 0.810274L23.8518 0.811542L23.8567 0.814547L23.8695 0.822439C23.8793 0.828538 23.8916 0.836324 23.9063 0.845815C23.9356 0.86479 23.9745 0.890622 24.0214 0.923465C24.1151 0.989091 24.2418 1.08309 24.3902 1.20677C24.6863 1.45355 25.0736 1.82221 25.4593 2.32361C26.2365 3.33392 27 4.87645 27 6.99999C27 9.12353 26.2365 10.6661 25.4593 11.6764C25.0736 12.1778 24.6863 12.5464 24.3902 12.7932C24.2418 12.9169 24.1151 13.0109 24.0214 13.0765C23.9745 13.1094 23.9356 13.1352 23.9063 13.1542C23.899 13.1589 23.8922 13.1632 23.8861 13.1671C23.88 13.171 23.8744 13.1745 23.8695 13.1775L23.8567 13.1854L23.8518 13.1884L23.8497 13.1897C23.8492 13.19 23.8478 13.1908 23.3333 12.3333L23.8478 13.1908C23.3743 13.475 22.76 13.3214 22.4758 12.8478C22.1929 12.3762 22.344 11.7651 22.8129 11.4794L22.8203 11.4747C22.83 11.4684 22.8485 11.4562 22.8745 11.438C22.9265 11.4016 23.0082 11.3414 23.1098 11.2568C23.3137 11.0869 23.5931 10.8222 23.874 10.4569C24.4302 9.73392 25 8.60978 25 6.99999C25 5.39019 24.4302 4.26605 23.874 3.54303C23.5931 3.17776 23.3137 2.91309 23.1098 2.74321C23.0082 2.65855 22.9265 2.59839 22.8745 2.56193C22.8485 2.54373 22.83 2.53154 22.8203 2.52526L22.8129 2.52055C22.344 2.23484 22.1929 1.62375 22.4758 1.15216Z" fill="url(#paint0_radial_4277_435)"/>
<path d="M11.3333 12.3333C14.2789 12.3333 16.6667 9.94551 16.6667 6.99999C16.6667 4.05447 14.2789 1.66665 11.3333 1.66665C8.38782 1.66665 6 4.05447 6 6.99999C6 9.94551 8.38782 12.3333 11.3333 12.3333Z" fill="url(#paint1_radial_4277_435)"/>
<path d="M0.666668 22.3333C0.666668 25.647 0.666668 28.3333 11.3333 28.3333C22 28.3333 22 25.647 22 22.3333C22 19.0196 17.2244 16.3333 11.3333 16.3333C5.4423 16.3333 0.666668 19.0196 0.666668 22.3333Z" fill="url(#paint2_radial_4277_435)"/>
<path d="M21.1812 3.47583C20.7076 3.19168 20.0933 3.34525 19.8092 3.81883L20.1401 5.18348L20.1505 5.19057C20.1661 5.20151 20.1957 5.22313 20.2348 5.25571C20.3137 5.32143 20.4264 5.42776 20.5407 5.57637C20.7635 5.86605 21 6.32353 21 6.99999C21 7.67645 20.7635 8.13392 20.5407 8.42361C20.4264 8.57221 20.3137 8.67855 20.2348 8.74427C20.1957 8.77684 20.1661 8.79847 20.1505 8.8094L20.1401 8.81649C19.676 9.10376 19.5274 9.7116 19.8092 10.1812C20.0933 10.6547 20.7076 10.8083 21.1812 10.5241L20.6667 9.66665C21.1812 10.5241 21.1807 10.5244 21.1812 10.5241L21.183 10.5231L21.1849 10.5219L21.1891 10.5193L21.199 10.5132L21.2247 10.4969C21.2442 10.4843 21.2687 10.4679 21.2974 10.4479C21.3547 10.4078 21.4293 10.3523 21.5152 10.2807C21.6863 10.1381 21.9069 9.92776 22.126 9.64303C22.5698 9.06605 23 8.19019 23 6.99999C23 5.80978 22.5698 4.93392 22.126 4.35694C21.9069 4.07221 21.6863 3.86188 21.5152 3.71927C21.4293 3.64768 21.3547 3.59222 21.2974 3.55211C21.2687 3.53203 21.2442 3.5157 21.2247 3.50304L21.199 3.48675L21.1891 3.48063L21.1849 3.47806L21.183 3.4769C21.1825 3.47664 21.1812 3.47583 20.6667 4.33332L21.1812 3.47583Z" fill="url(#paint3_radial_4277_435)"/>
<defs>
<radialGradient id="paint0_radial_4277_435" cx="0" cy="0" r="1" gradientUnits="userSpaceOnUse" gradientTransform="translate(4.73937 6.88899) rotate(51.5144) scale(32.7524 46.1915)">
<stop stop-color="white"/>
<stop offset="1" stop-color="#CBD1D6"/>
</radialGradient>
<radialGradient id="paint1_radial_4277_435" cx="0" cy="0" r="1" gradientUnits="userSpaceOnUse" gradientTransform="translate(4.73937 6.88899) rotate(51.5144) scale(32.7524 46.1915)">
<stop stop-color="white"/>
<stop offset="1" stop-color="#CBD1D6"/>
</radialGradient>
<radialGradient id="paint2_radial_4277_435" cx="0" cy="0" r="1" gradientUnits="userSpaceOnUse" gradientTransform="translate(4.73937 6.88899) rotate(51.5144) scale(32.7524 46.1915)">
<stop stop-color="white"/>
<stop offset="1" stop-color="#CBD1D6"/>
</radialGradient>
<radialGradient id="paint3_radial_4277_435" cx="0" cy="0" r="1" gradientUnits="userSpaceOnUse" gradientTransform="translate(4.73937 6.88899) rotate(51.5144) scale(32.7524 46.1915)">
<stop stop-color="white"/>
<stop offset="1" stop-color="#CBD1D6"/>
</radialGradient>
</defs>
</svg>
