<svg width="28" height="28" viewBox="0 0 28 28" fill="none" xmlns="http://www.w3.org/2000/svg">
<path fill-rule="evenodd" clip-rule="evenodd" d="M14 27.3333C7.7146 27.3333 4.5719 27.3333 2.61928 25.3807C0.666656 23.4281 0.666656 20.2854 0.666656 14C0.666656 7.71457 0.666656 4.57187 2.61928 2.61925C4.5719 0.666626 7.7146 0.666626 14 0.666626C20.2854 0.666626 23.4281 0.666626 25.3807 2.61925C27.3333 4.57187 27.3333 7.71457 27.3333 14C27.3333 20.2854 27.3333 23.4281 25.3807 25.3807C23.4281 27.3333 20.2854 27.3333 14 27.3333ZM19.683 7.96955C20.068 7.57356 20.7011 7.56465 21.0971 7.94963L22.6971 9.50519C22.8907 9.69347 23 9.95208 23 10.2222C23 10.4923 22.8907 10.7509 22.6971 10.9392L21.0971 12.4947C20.7011 12.8797 20.068 12.8708 19.683 12.4748C19.348 12.1302 19.3113 11.6061 19.5683 11.2222H19.1177C18.4354 11.2222 17.9925 11.2232 17.6497 11.2556C17.3273 11.2861 17.1716 11.3389 17.0586 11.4011C16.9469 11.4626 16.8237 11.5624 16.6344 11.8109C16.4314 12.0774 16.2043 12.4433 15.8527 13.0131L13.8257 16.2976C13.5043 16.8184 13.2262 17.2691 12.9567 17.6229C12.6669 18.0035 12.3444 18.3317 11.9058 18.5731C11.4687 18.8138 11.0174 18.9124 10.5385 18.9577C10.0905 19 9.55244 19 8.92612 19L5.99999 19C5.44771 19 4.99999 18.5522 4.99999 18C4.99999 17.4477 5.44771 17 5.99999 17H8.88228C9.56461 17 10.0075 16.9989 10.3503 16.9665C10.6727 16.9361 10.8283 16.8833 10.9414 16.821C11.053 16.7596 11.1763 16.6598 11.3656 16.4112C11.5685 16.1447 11.7957 15.7788 12.1473 15.2091L14.1743 11.9245C14.4957 11.4038 14.7738 10.9531 15.0433 10.5992C15.333 10.2187 15.6556 9.89041 16.0941 9.649C16.5313 9.40837 16.9826 9.30973 17.4615 9.26448C17.9095 9.22214 18.4475 9.22216 19.0739 9.22218L19.5683 9.22218C19.3113 8.83824 19.348 8.31412 19.683 7.96955ZM10.5137 11.0255C10.4006 11.0041 10.2658 11 9.73409 11H5.99999C5.44771 11 4.99999 10.5522 4.99999 9.99996C4.99999 9.44767 5.44771 8.99996 5.99999 8.99996H9.73409L9.81123 8.99993C10.228 8.99971 10.5641 8.99953 10.8856 9.06038C11.6044 9.19641 12.2629 9.55707 12.7592 10.0934C12.9817 10.3338 13.1571 10.6185 13.3704 10.9646L13.411 11.0303C13.701 11.5003 13.5552 12.1165 13.0852 12.4065C12.6152 12.6966 11.9991 12.5507 11.709 12.0807C11.4345 11.6359 11.3645 11.5309 11.2913 11.4519C11.0904 11.2347 10.8182 11.0831 10.5137 11.0255ZM14.9148 15.3712C15.3848 15.0811 16.0009 15.227 16.291 15.697C16.5655 16.1418 16.6355 16.2468 16.7086 16.3258C16.9096 16.543 17.1818 16.6946 17.4862 16.7522C17.5994 16.7736 17.7342 16.7777 18.2659 16.7777H19.5683C19.3113 16.3938 19.348 15.8697 19.683 15.5251C20.068 15.1291 20.7011 15.1202 21.0971 15.5052L22.6971 17.0607C22.8907 17.249 23 17.5076 23 17.7777C23 18.0478 22.8907 18.3065 22.6971 18.4947L21.0971 20.0503C20.7011 20.4353 20.068 20.4264 19.683 20.0304C19.348 19.6858 19.3113 19.1617 19.5683 18.7777H18.2659L18.1887 18.7778C17.7719 18.778 17.4359 18.7782 17.1144 18.7173C16.3956 18.5813 15.7371 18.2206 15.2407 17.6843C15.0183 17.4439 14.8428 17.1592 14.6295 16.8131L14.589 16.7474C14.299 16.2774 14.4448 15.6612 14.9148 15.3712Z" fill="url(#paint0_radial_4277_330)"/>
<defs>
<radialGradient id="paint0_radial_4277_330" cx="0" cy="0" r="1" gradientUnits="userSpaceOnUse" gradientTransform="translate(4.79092 6.66417) rotate(50.1285) scale(32.197 45.8631)">
<stop stop-color="white"/>
<stop offset="1" stop-color="#CBD1D6"/>
</radialGradient>
</defs>
</svg>
