<svg width="28" height="28" viewBox="0 0 28 28" fill="none" xmlns="http://www.w3.org/2000/svg">
<path d="M10.0457 5.95069L6.65486 9.33138C6.03159 9.95276 5.45984 10.5228 5.00833 11.038C4.71837 11.3689 4.42861 11.7311 4.18316 12.1313L4.15012 12.0984C4.08741 12.0358 4.05601 12.0045 4.02452 11.974C3.43515 11.4021 2.74188 10.9475 1.98182 10.6343C1.9412 10.6176 1.89998 10.6012 1.81753 10.5686L1.31266 10.3685C0.628715 10.0975 0.446434 9.21702 0.966863 8.69816C2.46047 7.20908 4.25376 5.42121 5.11922 5.06212C5.88247 4.74543 6.70698 4.64006 7.5022 4.75758C8.23081 4.86526 8.92009 5.23953 10.0457 5.95069Z" fill="url(#paint0_radial_4277_211)"/>
<path d="M15.8356 23.7509C16.1088 24.0282 16.2903 24.2241 16.4543 24.4334C16.6708 24.7096 16.8644 25.003 17.0331 25.3105C17.223 25.6568 17.3704 26.0266 17.6653 26.7664C17.9054 27.3686 18.7029 27.5278 19.1661 27.0659L19.2781 26.9542C20.7717 25.4651 22.5649 23.6772 22.9251 22.8143C23.2428 22.0533 23.3484 21.2313 23.2306 20.4385C23.1226 19.7121 22.7473 19.025 22.0342 17.903L18.632 21.295C17.9946 21.9305 17.4101 22.5132 16.8816 22.9697C16.5648 23.2433 16.2182 23.5167 15.8356 23.7509Z" fill="url(#paint1_radial_4277_211)"/>
<path fill-rule="evenodd" clip-rule="evenodd" d="M17.2622 19.8359L25.058 12.0635C26.1808 10.9441 26.7421 10.3844 27.0378 9.67273C27.3335 8.96103 27.3335 8.16955 27.3335 6.58657V5.83032C27.3335 3.39613 27.3335 2.17904 26.575 1.42283C25.8165 0.666626 24.5958 0.666626 22.1542 0.666626H21.3958C19.808 0.666626 19.0141 0.666626 18.3003 0.961423C17.5864 1.25622 17.0251 1.81589 15.9024 2.93523L8.10655 10.7077C6.79466 12.0156 5.98122 12.8266 5.66622 13.6099C5.5667 13.8574 5.51693 14.1022 5.51693 14.3589C5.51693 15.4284 6.38014 16.289 8.10655 18.0102L8.33858 18.2416L11.0566 15.483C11.4442 15.0896 12.0774 15.0849 12.4708 15.4725C12.8642 15.8602 12.8689 16.4933 12.4812 16.8867L9.75494 19.6537L9.93769 19.8359C11.6641 21.5571 12.5273 22.4177 13.6 22.4177C13.837 22.4177 14.0637 22.3757 14.2919 22.2917C15.0962 21.9954 15.9173 21.1768 17.2622 19.8359ZM20.9247 10.7082C19.9134 11.7165 18.2737 11.7165 17.2624 10.7082C16.2511 9.69996 16.2511 8.06522 17.2624 7.05695C18.2737 6.04867 19.9134 6.04867 20.9247 7.05695C21.936 8.06522 21.936 9.69996 20.9247 10.7082Z" fill="url(#paint2_radial_4277_211)"/>
<defs>
<radialGradient id="paint0_radial_4277_211" cx="0" cy="0" r="1" gradientUnits="userSpaceOnUse" gradientTransform="translate(4.79095 6.66421) rotate(50.1286) scale(32.1972 45.8634)">
<stop stop-color="white"/>
<stop offset="1" stop-color="#CBD1D6"/>
</radialGradient>
<radialGradient id="paint1_radial_4277_211" cx="0" cy="0" r="1" gradientUnits="userSpaceOnUse" gradientTransform="translate(4.79095 6.66421) rotate(50.1286) scale(32.1972 45.8634)">
<stop stop-color="white"/>
<stop offset="1" stop-color="#CBD1D6"/>
</radialGradient>
<radialGradient id="paint2_radial_4277_211" cx="0" cy="0" r="1" gradientUnits="userSpaceOnUse" gradientTransform="translate(4.79095 6.66421) rotate(50.1286) scale(32.1972 45.8634)">
<stop stop-color="white"/>
<stop offset="1" stop-color="#CBD1D6"/>
</radialGradient>
</defs>
</svg>
