<svg width="24" height="28" viewBox="0 0 24 28" fill="none" xmlns="http://www.w3.org/2000/svg">
<path d="M11.925 8.35679C11.9714 8.33375 11.9941 8.33329 12 8.33329C12.0059 8.33329 12.0286 8.33375 12.075 8.35679C12.1247 8.38154 12.2024 8.43317 12.3011 8.53542C12.5048 8.74627 12.7385 9.11074 12.9571 9.65731C13.1727 10.1961 13.3523 10.859 13.4771 11.6122C13.5508 12.0568 13.6037 12.5228 13.6345 13H10.3655C10.3963 12.5228 10.4492 12.0568 10.5229 11.6122C10.6477 10.859 10.8273 10.1961 11.0429 9.6573C11.2615 9.11074 11.4952 8.74627 11.6989 8.53542C11.7976 8.43317 11.8753 8.38154 11.925 8.35679Z" fill="url(#paint0_radial_4277_49)"/>
<path d="M8.36177 13C8.39523 12.4146 8.45809 11.8386 8.54977 11.2853C8.67853 10.5081 8.86384 9.77743 9.10318 9.12969C8.69963 9.36972 8.32656 9.65952 7.99306 9.99302C7.46686 10.5192 7.04946 11.1439 6.76468 11.8314C6.60853 12.2084 6.49393 12.6002 6.42227 13H8.36177Z" fill="url(#paint1_radial_4277_49)"/>
<path d="M6.42227 15H8.36177C8.39523 15.5853 8.45809 16.1613 8.54977 16.7146C8.67853 17.4918 8.86384 18.2225 9.10318 18.8702C8.69963 18.6302 8.32656 18.3404 7.99306 18.0069C7.46686 17.4807 7.04946 16.856 6.76468 16.1685C6.60853 15.7915 6.49393 15.3997 6.42227 15Z" fill="url(#paint2_radial_4277_49)"/>
<path d="M17.5777 13C17.5061 12.6002 17.3915 12.2084 17.2353 11.8314C16.9505 11.1439 16.5331 10.5192 16.0069 9.99302C15.6734 9.65952 15.3004 9.36972 14.8968 9.12969C15.1362 9.77743 15.3215 10.5081 15.4502 11.2853C15.5419 11.8386 15.6048 12.4146 15.6382 13H17.5777Z" fill="url(#paint3_radial_4277_49)"/>
<path d="M15.6382 15H17.5777C17.5061 15.3997 17.3915 15.7915 17.2353 16.1685C16.9505 16.856 16.5331 17.4807 16.0069 18.0069C15.6734 18.3404 15.3004 18.6302 14.8968 18.8702C15.1362 18.2225 15.3215 17.4918 15.4502 16.7146C15.5419 16.1613 15.6048 15.5853 15.6382 15Z" fill="url(#paint4_radial_4277_49)"/>
<path d="M13.6345 15C13.6037 15.4771 13.5508 15.9431 13.4771 16.3877C13.3523 17.1409 13.1727 17.8038 12.9571 18.3426C12.7385 18.8892 12.5048 19.2537 12.3011 19.4645C12.2024 19.5668 12.1247 19.6184 12.075 19.6431C12.0286 19.6662 12.0059 19.6666 12 19.6666C11.9941 19.6666 11.9714 19.6662 11.925 19.6431C11.8753 19.6184 11.7976 19.5668 11.6989 19.4645C11.4952 19.2537 11.2615 18.8892 11.0429 18.3426C10.8273 17.8038 10.6477 17.1409 10.5229 16.3877C10.4492 15.9431 10.3963 15.4771 10.3655 15H13.6345Z" fill="url(#paint5_radial_4277_49)"/>
<path fill-rule="evenodd" clip-rule="evenodd" d="M0.503354 4.7765C0 5.49366 0 7.62539 0 11.8888V13.9884C0 21.5059 5.65195 25.1539 9.19808 26.703C10.16 27.1232 10.641 27.3333 12 27.3333C13.359 27.3333 13.84 27.1232 14.8019 26.703C18.348 25.1539 24 21.5059 24 13.9884V11.8888C24 7.62539 24 5.49366 23.4966 4.7765C22.9933 4.05935 20.9889 3.37324 16.9801 2.00102L16.2164 1.73958C14.1267 1.02428 13.0819 0.666626 12 0.666626C10.9181 0.666626 9.87331 1.02428 7.78363 1.73958L7.01988 2.00102C3.0111 3.37324 1.00671 4.05935 0.503354 4.7765ZM4.33333 14C4.33333 12.9932 4.53164 11.9962 4.91692 11.0661C5.30221 10.1359 5.86693 9.29072 6.57885 8.57881C7.29076 7.86689 8.13593 7.30217 9.0661 6.91688C9.99626 6.5316 10.9932 6.33329 12 6.33329C13.0068 6.33329 14.0037 6.5316 14.9339 6.91688C15.8641 7.30217 16.7092 7.86689 17.4212 8.57881C18.1331 9.29072 18.6978 10.1359 19.0831 11.0661C19.4684 11.9962 19.6667 12.9932 19.6667 14C19.6667 15.0068 19.4684 16.0037 19.0831 16.9339C18.6978 17.864 18.1331 18.7092 17.4212 19.4211C16.7092 20.133 15.8641 20.6978 14.9339 21.083C14.0037 21.4683 13.0068 21.6666 12 21.6666C10.9932 21.6666 9.99626 21.4683 9.06609 21.083C8.13593 20.6978 7.29076 20.133 6.57885 19.4211C5.86693 18.7092 5.30221 17.864 4.91692 16.9339C4.53164 16.0037 4.33333 15.0068 4.33333 14Z" fill="url(#paint6_radial_4277_49)"/>
<defs>
<radialGradient id="paint0_radial_4277_49" cx="0" cy="0" r="1" gradientUnits="userSpaceOnUse" gradientTransform="translate(3.71183 6.66417) rotate(53.0658) scale(30.9144 42.9893)">
<stop stop-color="white"/>
<stop offset="1" stop-color="#CBD1D6"/>
</radialGradient>
<radialGradient id="paint1_radial_4277_49" cx="0" cy="0" r="1" gradientUnits="userSpaceOnUse" gradientTransform="translate(3.71183 6.66417) rotate(53.0658) scale(30.9144 42.9893)">
<stop stop-color="white"/>
<stop offset="1" stop-color="#CBD1D6"/>
</radialGradient>
<radialGradient id="paint2_radial_4277_49" cx="0" cy="0" r="1" gradientUnits="userSpaceOnUse" gradientTransform="translate(3.71183 6.66417) rotate(53.0658) scale(30.9144 42.9893)">
<stop stop-color="white"/>
<stop offset="1" stop-color="#CBD1D6"/>
</radialGradient>
<radialGradient id="paint3_radial_4277_49" cx="0" cy="0" r="1" gradientUnits="userSpaceOnUse" gradientTransform="translate(3.71183 6.66417) rotate(53.0658) scale(30.9144 42.9893)">
<stop stop-color="white"/>
<stop offset="1" stop-color="#CBD1D6"/>
</radialGradient>
<radialGradient id="paint4_radial_4277_49" cx="0" cy="0" r="1" gradientUnits="userSpaceOnUse" gradientTransform="translate(3.71183 6.66417) rotate(53.0658) scale(30.9144 42.9893)">
<stop stop-color="white"/>
<stop offset="1" stop-color="#CBD1D6"/>
</radialGradient>
<radialGradient id="paint5_radial_4277_49" cx="0" cy="0" r="1" gradientUnits="userSpaceOnUse" gradientTransform="translate(3.71183 6.66417) rotate(53.0658) scale(30.9144 42.9893)">
<stop stop-color="white"/>
<stop offset="1" stop-color="#CBD1D6"/>
</radialGradient>
<radialGradient id="paint6_radial_4277_49" cx="0" cy="0" r="1" gradientUnits="userSpaceOnUse" gradientTransform="translate(3.71183 6.66417) rotate(53.0658) scale(30.9144 42.9893)">
<stop stop-color="white"/>
<stop offset="1" stop-color="#CBD1D6"/>
</radialGradient>
</defs>
</svg>
