<svg width="25" height="25" viewBox="0 0 25 25" fill="none" xmlns="http://www.w3.org/2000/svg">
<mask id="mask0_4120_3587" style="mask-type:luminance" maskUnits="userSpaceOnUse" x="0" y="0" width="25" height="25">
<path d="M0 0H25V25H0V0Z" fill="white"/>
</mask>
<g mask="url(#mask0_4120_3587)">
<path d="M22.3895 13.0892L20.6274 14.1066C20.5747 14.137 20.5074 14.1189 20.477 14.0663L17.3039 8.5704C17.2736 8.51772 17.2916 8.45043 17.3442 8.42001L19.1064 7.40263" stroke="#F5F5F5" stroke-width="0.961538" stroke-miterlimit="10" stroke-linecap="round" stroke-linejoin="round"/>
<path d="M20.4566 14.0321L13.0738 9.89739C12.9308 9.81477 12.7544 9.81477 12.6113 9.89739L10.329 11.2147C9.76537 11.5401 9.04462 11.347 8.71923 10.7833C8.39384 10.2197 8.5869 9.49895 9.15058 9.17356L11.5569 7.78425C12.1737 7.42815 12.9335 7.42815 13.5502 7.78425L15.1655 8.71682C15.773 9.0675 16.5214 9.06755 17.1289 8.71697L17.3233 8.605L20.4566 14.0321Z" stroke="#F5F5F5" stroke-width="0.961538" stroke-miterlimit="10" stroke-linecap="round" stroke-linejoin="round"/>
<path d="M6.23812 15.9023L7.28588 15.2974C7.8495 14.9719 8.04266 14.2512 7.71722 13.6875C7.39178 13.1239 6.67108 12.9308 6.10741 13.2562L5.05966 13.8611C4.49598 14.1865 4.30287 14.9073 4.62831 15.4709C4.95375 16.0346 5.6745 16.2277 6.23812 15.9023Z" stroke="#F5F5F5" stroke-width="0.961538" stroke-miterlimit="10" stroke-linecap="round" stroke-linejoin="round"/>
<path d="M7.59811 17.838L8.22052 17.4787C8.78414 17.1532 8.97726 16.4325 8.65187 15.8689C8.32643 15.3052 7.60568 15.1121 7.042 15.4375L6.41964 15.7968C5.85597 16.1223 5.66285 16.843 5.98829 17.4067C6.31373 17.9703 7.03448 18.1634 7.59811 17.838Z" stroke="#F5F5F5" stroke-width="0.961538" stroke-miterlimit="10" stroke-linecap="round" stroke-linejoin="round"/>
<path d="M9.42605 19.5043L9.98772 19.18C10.5514 18.8546 10.7445 18.1339 10.4191 17.5703C10.0936 17.0066 9.37292 16.8135 8.80925 17.1389L8.24758 17.4632C7.68391 17.7886 7.4908 18.5094 7.81623 19.073C8.14163 19.6366 8.86238 19.8298 9.42605 19.5043Z" stroke="#F5F5F5" stroke-width="0.961538" stroke-miterlimit="10" stroke-linecap="round" stroke-linejoin="round"/>
<path d="M11.7407 20.756L12.0593 20.5721C12.623 20.2466 12.8161 19.5259 12.4907 18.9622C12.1652 18.3986 11.4445 18.2055 10.8809 18.5309L10.5622 18.7149C9.99855 19.0403 9.80543 19.7611 10.1309 20.3247C10.4563 20.8883 11.1771 21.0815 11.7407 20.756Z" stroke="#F5F5F5" stroke-width="0.961538" stroke-miterlimit="10" stroke-linecap="round" stroke-linejoin="round"/>
<path d="M13.9917 18.5919L14.6229 18.9563" stroke="#F5F5F5" stroke-width="0.961538" stroke-miterlimit="10" stroke-linecap="round" stroke-linejoin="round"/>
<path d="M15.1702 16.5509L16.9269 17.5651" stroke="#F5F5F5" stroke-width="0.961538" stroke-miterlimit="10" stroke-linecap="round" stroke-linejoin="round"/>
<path d="M16.3486 14.5094L18.9626 16.0186" stroke="#F5F5F5" stroke-width="0.961538" stroke-miterlimit="10" stroke-linecap="round" stroke-linejoin="round"/>
<path d="M2.60791 13.0892L4.37002 14.1066C4.42271 14.137 4.49004 14.1189 4.52046 14.0663L7.69351 8.5704C7.72388 8.51772 7.70586 8.45043 7.65322 8.42001L5.89106 7.40263" stroke="#F5F5F5" stroke-width="0.961538" stroke-miterlimit="10" stroke-linecap="round" stroke-linejoin="round"/>
<path d="M12.3328 20.3555L13.4218 20.9842C13.994 21.3145 14.7464 21.1246 15.0658 20.5463C15.3755 19.9856 15.1803 19.2779 14.6233 18.9563L15.7258 19.5929C16.298 19.9232 17.0504 19.7333 17.3698 19.155C17.6795 18.5944 17.4843 17.8866 16.9273 17.565L17.8205 18.0807C18.4155 18.4242 19.1537 18.2025 19.461 17.5879L19.4629 17.5842C19.7354 17.0392 19.5266 16.3441 18.9989 16.0395L18.9631 16.0188C19.5267 16.3442 20.2474 16.1511 20.5729 15.5874C20.8632 15.0067 20.6407 14.2659 20.0784 13.9412" stroke="#F5F5F5" stroke-width="0.961538" stroke-miterlimit="10" stroke-linecap="round" stroke-linejoin="round"/>
<path d="M2.79375 5.20441L0.472022 3.86394C0.424561 3.83654 0.365234 3.87082 0.365234 3.92561V12.1622C0.365234 12.1877 0.378809 12.2112 0.40083 12.2238L2.33618 13.3412C2.38887 13.3717 2.4562 13.3536 2.48657 13.3009L6.01426 7.19089C6.04463 7.1382 6.02656 7.07087 5.97393 7.0405L2.79375 5.20441Z" stroke="#F5F5F5" stroke-width="0.961538" stroke-miterlimit="10" stroke-linecap="round" stroke-linejoin="round"/>
<path d="M21.7768 12.0296L22.5109 13.301C22.5412 13.3536 22.6086 13.3717 22.6612 13.3412L24.5966 12.2239C24.6186 12.2112 24.6322 12.1876 24.6322 12.1622V3.92562C24.6322 3.87083 24.5729 3.83655 24.5254 3.86395L19.0235 7.04046C18.9709 7.07088 18.9528 7.13821 18.9832 7.1909L21.7768 12.0296Z" stroke="#F5F5F5" stroke-width="0.961538" stroke-miterlimit="10" stroke-linecap="round" stroke-linejoin="round"/>
<path d="M9.25005 9.11603C8.77749 9.10421 8.3127 8.97365 7.89912 8.73497L7.67383 8.60514" stroke="#F5F5F5" stroke-width="0.961538" stroke-miterlimit="10" stroke-linecap="round" stroke-linejoin="round"/>
</g>
</svg>
