<svg width="16" height="16" viewBox="0 0 16 16" fill="none" xmlns="http://www.w3.org/2000/svg">
<g clip-path="url(#clip0_4136_682)">
<path d="M14.6667 9.33198C14.6474 11.608 14.5211 12.8627 13.6936 13.6901C12.7171 14.6667 11.1453 14.6667 8.00178 14.6667C4.85826 14.6667 3.2865 14.6667 2.30994 13.6901C1.33337 12.7136 1.33337 11.1418 1.33337 7.9983C1.33337 4.85479 1.33337 3.28303 2.30994 2.30646C3.13737 1.47903 4.39209 1.35267 6.6681 1.33337" stroke="#99A0AE" stroke-width="1.5" stroke-linecap="round"/>
<path d="M14.6667 4.66671L9.33333 4.66671C8.20807 4.66671 7.49786 5.17953 7.18531 5.47069C7.06234 5.58525 7.00086 5.64253 6.98834 5.65505C6.97582 5.66756 6.91854 5.72905 6.80399 5.85202C6.51282 6.16457 6 6.87477 6 8.00004L6 10M14.6667 4.66671L11.3333 1.33337M14.6667 4.66671L11.3333 8.00004" stroke="#99A0AE" stroke-width="1.5" stroke-linecap="round" stroke-linejoin="round"/>
</g>
<defs>
<clipPath id="clip0_4136_682">
<rect width="16" height="16" fill="white"/>
</clipPath>
</defs>
</svg>
