<svg width="29" height="23" viewBox="0 0 29 23" fill="none" xmlns="http://www.w3.org/2000/svg">
<path d="M14.7485 4.96895C16.0996 2.54522 16.7752 1.33335 17.7852 1.33335C18.7951 1.33335 19.4707 2.54522 20.8218 4.96895L21.1713 5.596C21.5553 6.28475 21.7472 6.62913 22.0465 6.85635C22.3459 7.08357 22.7186 7.16791 23.4642 7.3366L24.143 7.49018C26.7666 8.08381 28.0785 8.38063 28.3906 9.38427C28.7027 10.3879 27.8084 11.4337 26.0197 13.5253L25.557 14.0664C25.0487 14.6608 24.7946 14.9579 24.6802 15.3256C24.5659 15.6932 24.6043 16.0897 24.6812 16.8827L24.7511 17.6047C25.0215 20.3953 25.1568 21.7906 24.3397 22.4109C23.5226 23.0312 22.2943 22.4657 19.8378 21.3346L19.2022 21.042C18.5042 20.7206 18.1551 20.5599 17.7852 20.5599C17.4152 20.5599 17.0661 20.7206 16.3681 21.042L15.7325 21.3346C13.276 22.4657 12.0477 23.0312 11.2306 22.4109C10.4136 21.7906 10.5488 20.3953 10.8192 17.6047L10.8891 16.8827C10.966 16.0897 11.0044 15.6932 10.8901 15.3256C10.7757 14.9579 10.5216 14.6608 10.0133 14.0664L9.55059 13.5253C7.76195 11.4337 6.86763 10.3879 7.17974 9.38427C7.49184 8.38063 8.80367 8.08381 11.4273 7.49018L12.1061 7.33661C12.8517 7.16791 13.2244 7.08357 13.5238 6.85635C13.8231 6.62913 14.015 6.28475 14.399 5.596L14.7485 4.96895Z" fill="url(#paint0_radial_4277_278)"/>
<path fill-rule="evenodd" clip-rule="evenodd" d="M10.6605 2.9364C8.01833 2.17503 5.18411 2.57719 2.44956 4.17862L2.17201 4.34116C1.69544 4.62025 1.08285 4.46017 0.803749 3.98359C0.524653 3.50701 0.684742 2.89442 1.16132 2.61533L1.43886 2.45279C4.58609 0.609683 7.98253 0.0833278 11.2143 1.0146L11.4915 1.09448C12.0221 1.2474 12.3284 1.80158 12.1755 2.33227C12.0225 2.86296 11.4684 3.1692 10.9377 3.01628L10.6605 2.9364ZM5.44821 9.24847C5.49509 9.79876 5.087 10.2829 4.5367 10.3297C4.33249 10.3471 4.17592 10.3571 4.04471 10.3654C3.8082 10.3804 3.65409 10.3902 3.45186 10.429C3.18988 10.4793 2.84971 10.5858 2.23237 10.8944C1.73839 11.1414 1.13772 10.9412 0.890727 10.4472C0.643738 9.95325 0.843963 9.35258 1.33794 9.10559C2.05393 8.7476 2.5736 8.56108 3.07487 8.46487C3.40407 8.40168 3.74389 8.37955 4.04949 8.35964C4.16054 8.35241 4.26708 8.34547 4.36694 8.33696C4.91723 8.29008 5.40133 8.69818 5.44821 9.24847ZM6.89034 17.1413C5.31173 16.7714 3.64855 17.1383 2.40405 18.1188C1.97025 18.4606 1.34149 18.3861 0.999683 17.9523C0.657875 17.5184 0.732453 16.8897 1.16626 16.5479C2.89666 15.1844 5.18532 14.6876 7.34664 15.194C7.88436 15.32 8.21812 15.8581 8.09211 16.3958C7.96611 16.9335 7.42806 17.2673 6.89034 17.1413Z" fill="url(#paint1_radial_4277_278)"/>
<defs>
<radialGradient id="paint0_radial_4277_278" cx="0" cy="0" r="1" gradientUnits="userSpaceOnUse" gradientTransform="translate(4.96377 5.5348) rotate(43.6022) scale(29.6989 42.9406)">
<stop stop-color="white"/>
<stop offset="1" stop-color="#CBD1D6"/>
</radialGradient>
<radialGradient id="paint1_radial_4277_278" cx="0" cy="0" r="1" gradientUnits="userSpaceOnUse" gradientTransform="translate(4.96377 5.5348) rotate(43.6022) scale(29.6989 42.9406)">
<stop stop-color="white"/>
<stop offset="1" stop-color="#CBD1D6"/>
</radialGradient>
</defs>
</svg>
