<svg width="137" height="30" viewBox="0 0 137 30" fill="none" xmlns="http://www.w3.org/2000/svg">
<g clip-path="url(#clip0_4263_90)">
<path d="M23.7006 27.0408C22.6926 28.0317 21.7473 28.9588 20.6854 30V0.136108C25.5842 4.98996 30.5504 9.91022 35.6262 14.9393C33.5134 14.9393 31.4333 14.9666 29.3552 14.9084C29.0618 14.9001 28.751 14.5031 28.4975 14.2385C27.4419 13.1354 26.4052 12.0141 25.3615 10.8995C25.2619 10.9574 25.162 11.0151 25.0624 11.073C25.0394 11.4201 24.9972 11.7671 24.997 12.1142C24.9922 16.0624 24.9425 20.0119 25.0239 23.9587C25.0499 25.2241 24.8099 26.2305 23.7006 27.0408Z" fill="white"/>
<path d="M15.6758 -0.00012207V29.7854C15.582 29.8398 15.4883 29.8942 15.3944 29.9489C14.0826 28.5986 12.7453 27.2713 11.4822 25.8771C11.2557 25.6269 11.2829 25.0998 11.2817 24.7003C11.2687 20.5431 11.2739 16.3859 11.2742 12.2284V10.6806C9.93387 12.0479 8.87921 13.2061 7.72617 14.2561C7.31594 14.6296 6.67425 14.9135 6.12445 14.9392C4.31399 15.0236 2.4968 14.9709 0.510315 14.9709C5.65355 9.89359 10.633 4.97807 15.6758 -0.00012207Z" fill="white"/>
<path d="M85.2494 23.9142C83.2417 20.6102 81.3004 17.383 79.3589 14.1558C79.2793 14.1711 79.1999 14.186 79.1205 14.2013V24.0016H75.7343V7.26482C76.6329 7.26482 77.5118 7.17668 78.3582 7.30402C78.7482 7.36294 79.1896 7.77392 79.4121 8.14295C81.0201 10.8116 82.5761 13.5114 84.1528 16.1987C84.4195 16.6534 84.7064 17.0961 85.1785 17.8591V7.34247H88.58V23.9909C87.5066 23.9909 86.411 23.9909 85.2494 23.9142Z" fill="white"/>
<path d="M127.711 18.1288V24.0345H124.277V7.40362C127.403 7.40362 130.513 7.28851 133.609 7.44956C135.292 7.53695 136.277 8.73493 136.444 10.4373C136.56 11.6305 136.542 12.8467 136.473 14.0464C136.39 15.4791 135.527 16.3952 134.037 16.991C136.07 18.938 137.17 21.1459 136.338 24.0123H133.21C133.175 23.8438 133.091 23.6787 133.12 23.5369C133.565 21.3657 132.383 19.8334 131.122 18.3103C130.315 17.3363 129.258 17.9897 128.122 17.8139C127.843 17.9293 127.777 18.0292 127.711 18.1288ZM127.66 10.4717V14.6335C128.751 14.6335 129.698 14.634 130.645 14.6335C133.055 14.6325 133.152 14.5313 133.102 12.0899C133.098 11.9239 133.161 11.7089 133.08 11.601C132.784 11.2053 132.465 10.5526 132.11 10.5229C130.649 10.4008 129.172 10.4717 127.66 10.4717Z" fill="white"/>
<path d="M118.924 7.77268C120.277 8.52373 120.744 9.68426 120.755 11.0508C120.779 14.1294 120.806 17.2092 120.75 20.2871C120.708 22.5966 119.561 23.8585 117.241 24.0136C115.212 24.1492 113.16 24.1542 111.132 24.0131C108.757 23.8481 107.655 22.5425 107.639 20.1565C107.618 17.161 107.617 14.1651 107.64 11.1694C107.658 8.80687 108.811 7.41264 111.168 7.3627C113.722 7.30877 116.284 7.59042 118.924 7.77268ZM115.664 20.8851C116.714 20.9412 117.32 20.5398 117.311 19.392C117.292 16.9039 117.294 14.4155 117.311 11.9277C117.318 10.8718 116.787 10.4168 115.783 10.4146C114.705 10.4123 113.626 10.4001 112.549 10.4208C111.613 10.4386 111.099 10.869 111.108 11.8795C111.132 14.409 111.129 16.9388 111.111 19.4684C111.104 20.4823 111.613 20.8906 112.57 20.8841C113.524 20.8778 114.478 20.8848 115.664 20.8851Z" fill="white"/>
<path d="M104.371 17.9274C104.366 18.8745 104.406 19.7092 104.346 20.5369C104.218 22.3166 103.258 23.6532 101.498 23.8269C99.2437 24.0494 96.9361 24.0472 94.6807 23.8352C92.9564 23.6729 91.9502 22.1828 92.0054 20.456C92.0144 20.1771 92.2805 19.7444 92.5217 19.6635C93.4134 19.3653 94.3444 19.1851 95.263 18.9596C95.6503 20.845 95.7102 20.8934 97.5683 20.8994C98.0675 20.9011 98.5666 20.9044 99.0654 20.8982C100.693 20.8782 100.914 20.648 100.912 18.9866C100.91 17.3534 100.671 17.1082 99.0427 17.0945C98.0033 17.0857 96.9624 17.1202 95.9242 17.079C93.2798 16.9736 92.0598 15.732 91.9772 13.1103C91.8291 8.41323 92.9447 7.25894 97.6662 7.26768C98.8702 7.26993 100.086 7.24696 101.276 7.39552C103.096 7.62248 104.272 8.89063 104.316 10.6292C104.324 10.9672 103.944 11.4958 103.619 11.6259C102.817 11.947 101.944 12.0873 101.1 12.3003C100.594 10.4102 100.594 10.41 98.6734 10.4075C98.2575 10.407 97.8417 10.4055 97.4258 10.408C95.687 10.4187 95.4078 10.7438 95.4101 12.4426C95.4116 13.5819 95.9611 14.0091 97.0215 14.0014C98.1858 13.9927 99.3523 13.9667 100.514 14.0254C103.07 14.1547 104.139 15.2281 104.371 17.9274Z" fill="white"/>
<path d="M64.1927 13.8431H70.3622V16.9961H63.7967V20.8919H71.9027V24.028H60.3224V7.32837H71.8733V10.415C69.4119 10.415 66.9325 10.415 64.2067 10.4354C63.8959 10.607 63.8319 10.758 63.7678 10.9091C63.7505 11.6397 63.7333 12.3702 63.7196 13.2821C63.8794 13.5899 64.0362 13.7165 64.1927 13.8431Z" fill="white"/>
<path d="M51.9051 10.8759C51.8776 14.7375 51.8497 18.5991 51.8232 22.4607C51.8197 22.9536 51.8227 23.4462 51.8227 24.015H48.3953V10.4287H43.1871V7.35461H57.0146V10.4347C55.3585 10.4347 53.7053 10.4347 51.9533 10.5845C51.8714 10.7813 51.8881 10.8285 51.9051 10.8759Z" fill="white"/>
</g>
<defs>
<clipPath id="clip0_4263_90">
<rect width="136.25" height="30" fill="white" transform="translate(0.438263)"/>
</clipPath>
</defs>
</svg>
