<svg width="28" height="28" viewBox="0 0 28 28" fill="none" xmlns="http://www.w3.org/2000/svg">
<path fill-rule="evenodd" clip-rule="evenodd" d="M2.61929 2.61931C0.666672 4.57193 0.666672 7.71463 0.666672 14C0.666672 20.2854 0.666672 23.4281 2.61929 25.3807C4.57191 27.3334 7.71461 27.3334 14 27.3334C20.2854 27.3334 23.4281 27.3334 25.3807 25.3807C27.3333 23.4281 27.3333 20.2854 27.3333 14C27.3333 7.71463 27.3333 4.57193 25.3807 2.61931C23.4281 0.666687 20.2854 0.666687 14 0.666687C7.71461 0.666687 4.57191 0.666687 2.61929 2.61931ZM6.56514 10.6932C6.91871 10.2689 7.54927 10.2116 7.97355 10.5652L8.34211 10.8723C9.14871 11.5444 9.83538 12.1166 10.3106 12.6428C10.8154 13.2018 11.2093 13.8446 11.2093 14.6667C11.2093 15.4888 10.8154 16.1316 10.3106 16.6906C9.83538 17.2169 9.14871 17.789 8.34211 18.4611L7.97355 18.7683C7.54927 19.1218 6.91871 19.0645 6.56514 18.6402C6.21158 18.216 6.2689 17.5854 6.69318 17.2318L7.00572 16.9714C7.8838 16.2396 8.45798 15.758 8.82624 15.3502C9.17595 14.9629 9.20926 14.7814 9.20926 14.6667C9.20926 14.5521 9.17595 14.3705 8.82624 13.9832C8.45798 13.5754 7.8838 13.0938 7.00572 12.362L6.69318 12.1016C6.2689 11.748 6.21158 11.1175 6.56514 10.6932ZM21.6667 18C21.6667 18.5523 21.219 19 20.6667 19H14C13.4477 19 13 18.5523 13 18C13 17.4478 13.4477 17 14 17H20.6667C21.219 17 21.6667 17.4478 21.6667 18Z" fill="url(#paint0_radial_4277_189)"/>
<defs>
<radialGradient id="paint0_radial_4277_189" cx="0" cy="0" r="1" gradientUnits="userSpaceOnUse" gradientTransform="translate(4.79093 6.66423) rotate(50.1285) scale(32.197 45.8631)">
<stop stop-color="white"/>
<stop offset="1" stop-color="#CBD1D6"/>
</radialGradient>
</defs>
</svg>
