<svg width="20" height="22" viewBox="0 0 20 22" fill="none" xmlns="http://www.w3.org/2000/svg">
<path fill-rule="evenodd" clip-rule="evenodd" d="M9.02345 1.98441L9.60939 1.39847V4.35941C9.60939 4.46301 9.65054 4.56237 9.7238 4.63562C9.79705 4.70888 9.89641 4.75003 10 4.75003C10.1036 4.75003 10.203 4.70888 10.2762 4.63562C10.3495 4.56237 10.3906 4.46301 10.3906 4.35941V1.39652L10.9766 1.98246C11.0129 2.01901 11.0561 2.04802 11.1037 2.06779C11.1513 2.08757 11.2024 2.09773 11.2539 2.09769C11.3315 2.09814 11.4075 2.07548 11.4721 2.03259C11.5368 1.9897 11.5872 1.92852 11.617 1.85686C11.6467 1.78521 11.6544 1.70631 11.6392 1.63024C11.6239 1.55416 11.5864 1.48436 11.5313 1.42972L10.2754 0.177769C10.2022 0.105015 10.1032 0.0641785 10 0.0641785C9.89681 0.0641785 9.79781 0.105015 9.72462 0.177769L8.46876 1.42972C8.39521 1.50328 8.35388 1.60304 8.35388 1.70707C8.35388 1.75857 8.36403 1.80958 8.38374 1.85716C8.40345 1.90475 8.43234 1.94799 8.46876 1.98441C8.50518 2.02083 8.54842 2.04972 8.59601 2.06943C8.64359 2.08914 8.6946 2.09929 8.74611 2.09929C8.85013 2.09929 8.94989 2.05797 9.02345 1.98441ZM14.4922 8.18167L10.1953 5.69925C10.1359 5.66496 10.0686 5.64691 10 5.64691C9.93143 5.64691 9.86407 5.66496 9.80469 5.69925L5.50781 8.18362C5.44849 8.21787 5.39922 8.26712 5.36493 8.32642C5.33065 8.38573 5.31257 8.45301 5.3125 8.52151V13.4805C5.31257 13.549 5.33065 13.6163 5.36493 13.6756C5.39922 13.7349 5.44849 13.7841 5.50781 13.8184L9.80469 16.3008C9.86445 16.334 9.93165 16.3514 10 16.3516C10.0686 16.3515 10.136 16.3333 10.1953 16.2989L14.4922 13.8164C14.5515 13.7822 14.6008 13.7329 14.6351 13.6736C14.6693 13.6143 14.6874 13.547 14.6875 13.4785V8.51956C14.6874 8.45106 14.6693 8.38378 14.6351 8.32447C14.6008 8.26517 14.5515 8.21592 14.4922 8.18167ZM10 6.49026L13.5313 8.52737L10 10.5489L6.48438 8.52151L10 6.49026ZM6.09375 9.19729L9.60938 11.2266V15.2852L6.09375 13.2559V9.19729ZM10.3906 11.2266L13.9063 9.21292V13.2539L10.3906 15.2852V11.2266ZM10.3906 20.6016L10.9765 20.0156C11.0129 19.9792 11.0562 19.9503 11.1037 19.9306C11.1513 19.9109 11.2023 19.9007 11.2538 19.9007C11.3053 19.9007 11.3563 19.9109 11.4039 19.9306C11.4515 19.9503 11.4948 19.9792 11.5312 20.0156C11.5676 20.052 11.5965 20.0953 11.6162 20.1429C11.6359 20.1905 11.6461 20.2415 11.6461 20.293C11.6461 20.3445 11.6359 20.3955 11.6162 20.4431C11.5965 20.4907 11.5676 20.5339 11.5312 20.5703L10.2753 21.8242C10.2021 21.897 10.1031 21.9378 9.99993 21.9378C9.89673 21.9378 9.79773 21.897 9.72454 21.8242L8.46868 20.5703C8.43239 20.5339 8.40362 20.4907 8.38403 20.4431C8.36444 20.3956 8.3544 20.3447 8.35449 20.2933C8.35458 20.2418 8.3648 20.1909 8.38456 20.1435C8.40432 20.096 8.43324 20.0529 8.46966 20.0166C8.50608 19.9803 8.54929 19.9515 8.59683 19.932C8.64437 19.9124 8.6953 19.9023 8.74672 19.9024C8.79813 19.9025 8.84903 19.9127 8.8965 19.9325C8.94396 19.9522 8.98708 19.9812 9.02337 20.0176L9.60931 20.6035V17.6406C9.60931 17.537 9.65046 17.4377 9.72372 17.3644C9.79697 17.2912 9.89633 17.25 9.99993 17.25C10.1035 17.25 10.2029 17.2912 10.2761 17.3644C10.3494 17.4377 10.3906 17.537 10.3906 17.6406V20.6016ZM4.44535 7.34178L1.87895 5.85935L2.68168 5.64451C2.73477 5.63517 2.78535 5.61494 2.83024 5.58509C2.87513 5.55525 2.91336 5.51644 2.94252 5.4711C2.97168 5.42576 2.99114 5.37488 2.99968 5.32166C3.00821 5.26843 3.00564 5.21401 2.99212 5.16183C2.9786 5.10965 2.95443 5.06083 2.92112 5.01844C2.88782 4.97606 2.8461 4.94103 2.7986 4.91555C2.75109 4.89007 2.69883 4.87471 2.64509 4.87041C2.59136 4.86612 2.53732 4.87299 2.48637 4.8906L0.771526 5.34959C0.720749 5.36199 0.672978 5.38446 0.631042 5.41566C0.589105 5.44686 0.553857 5.48616 0.527386 5.53123C0.476655 5.62148 0.462664 5.7278 0.488323 5.8281L0.949261 7.54295C0.971586 7.62586 1.02061 7.69911 1.08875 7.75136C1.15689 7.80361 1.24035 7.83196 1.32621 7.83201C1.36054 7.83215 1.39471 7.82755 1.42778 7.81834C1.52772 7.79135 1.61286 7.72579 1.66449 7.63607C1.71613 7.54635 1.73004 7.43979 1.70317 7.33982L1.48832 6.53709L4.05473 8.01756C4.11407 8.05198 4.18144 8.07017 4.25004 8.07029C4.3359 8.07014 4.41932 8.0417 4.4874 7.98938C4.55548 7.93705 4.60442 7.86375 4.62665 7.78082C4.64889 7.69789 4.64318 7.60994 4.6104 7.53057C4.57763 7.45121 4.51963 7.38486 4.44535 7.34178ZM18.8663 14.2404C18.9528 14.2868 19.0188 14.3642 19.0508 14.457L19.5118 16.1719C19.5374 16.2722 19.5235 16.3785 19.4727 16.4688C19.4469 16.5132 19.4126 16.5522 19.3717 16.5833C19.3308 16.6145 19.2842 16.6373 19.2344 16.6504L17.5196 17.1094C17.4866 17.1187 17.4524 17.1233 17.418 17.1231C17.3236 17.1224 17.2327 17.0875 17.162 17.025C17.0913 16.9624 17.0456 16.8763 17.0335 16.7827C17.0213 16.6891 17.0435 16.5942 17.0959 16.5157C17.1483 16.4371 17.2273 16.3802 17.3184 16.3555L18.1212 16.1406L15.5548 14.6582C15.4697 14.6042 15.4089 14.5193 15.3849 14.4215C15.3609 14.3236 15.3757 14.2203 15.4261 14.1331C15.4765 14.0458 15.5587 13.9815 15.6555 13.9534C15.7522 13.9253 15.8561 13.9357 15.9454 13.9824L18.5118 15.4551L18.2969 14.6523C18.2799 14.5556 18.3 14.456 18.3531 14.3733C18.4063 14.2907 18.4886 14.2311 18.5837 14.2065C18.6788 14.1819 18.7797 14.194 18.8663 14.2404ZM4.05473 13.9824L1.48832 15.4629L1.70317 14.6602C1.72078 14.6092 1.72765 14.5552 1.72336 14.5014C1.71906 14.4477 1.7037 14.3954 1.67822 14.3479C1.65274 14.3004 1.61771 14.2587 1.57533 14.2254C1.53294 14.1921 1.48412 14.1679 1.43194 14.1544C1.37976 14.1409 1.32534 14.1383 1.27211 14.1469C1.21889 14.1554 1.16801 14.1749 1.12267 14.204C1.07733 14.2332 1.03852 14.2714 1.00868 14.3163C0.978833 14.3612 0.958603 14.4118 0.949261 14.4648L0.488323 16.1719C0.462664 16.2722 0.476655 16.3785 0.527386 16.4688C0.553195 16.5132 0.587529 16.5522 0.628419 16.5833C0.669308 16.6145 0.71595 16.6373 0.765667 16.6504L2.48051 17.1094C2.51355 17.1187 2.54774 17.1233 2.58207 17.1231C2.67648 17.1224 2.76745 17.0875 2.83816 17.025C2.90886 16.9624 2.9545 16.8763 2.96665 16.7827C2.9788 16.6891 2.95663 16.5942 2.90424 16.5157C2.85186 16.4371 2.77279 16.3802 2.68168 16.3555L1.87895 16.1406L4.44535 14.6582C4.53038 14.6042 4.59123 14.5193 4.6152 14.4215C4.63917 14.3236 4.6244 14.2203 4.57398 14.1331C4.52356 14.0458 4.44139 13.9815 4.34463 13.9534C4.24787 13.9253 4.144 13.9357 4.05473 13.9824ZM15.9473 8.01756C15.888 8.05198 15.8206 8.07017 15.752 8.07029H15.75C15.6642 8.07014 15.5808 8.0417 15.5127 7.98938C15.4446 7.93705 15.3957 7.86375 15.3734 7.78082C15.3512 7.69789 15.3569 7.60994 15.3897 7.53057C15.4225 7.45121 15.4805 7.38486 15.5547 7.34178L18.1289 5.85935L17.3262 5.64451C17.2731 5.63517 17.2225 5.61494 17.1777 5.58509C17.1328 5.55525 17.0945 5.51644 17.0654 5.4711C17.0362 5.42576 17.0168 5.37488 17.0082 5.32166C16.9997 5.26843 17.0023 5.21401 17.0158 5.16183C17.0293 5.10965 17.0535 5.06083 17.0868 5.01844C17.1201 4.97606 17.1618 4.94103 17.2093 4.91555C17.2568 4.89007 17.3091 4.87471 17.3628 4.87041C17.4165 4.86612 17.4706 4.87299 17.5215 4.8906L19.2364 5.34959C19.2861 5.36269 19.3327 5.38548 19.3736 5.41665C19.4145 5.44782 19.4488 5.48676 19.4747 5.53123C19.5254 5.62148 19.5394 5.7278 19.5137 5.8281L19.0528 7.54295C19.0304 7.62586 18.9814 7.69911 18.9133 7.75136C18.8451 7.80361 18.7617 7.83196 18.6758 7.83201C18.6415 7.83215 18.6073 7.82755 18.5743 7.81834C18.4743 7.79135 18.3892 7.72579 18.3375 7.63607C18.2859 7.54635 18.272 7.43979 18.2989 7.33982L18.5137 6.53709L15.9473 8.01756Z" fill="#F3EDFF"/>
</svg>
